<?xml version="1.0" standalone="no"?><!DOCTYPE svg PUBLIC "-//W3C//DTD SVG 1.1//EN" "http://www.w3.org/Graphics/SVG/1.1/DTD/svg11.dtd"><svg t="1789455853070" class="icon" viewBox="0 0 1024 1024" version="1.1" xmlns="http://www.w3.org/2000/svg" p-id="13516" xmlns:xlink="http://www.w3.org/1999/xlink" width="200" height="200"><path d="M242.462109 0.259114l7.256271-0.013993c5.236309-0.009995 10.471618-0.012993 15.707928-0.010994 7.785999 0.002998 15.572997-0.005997 23.359995-0.015992 14.722434-0.01999 29.444868-0.024987 44.167301-0.025986a71510.895585 71510.895585 0 0 0 46.446131-0.017991c22.934214-0.011994 45.869427-0.01999 68.804641-0.01999h2.616655l13.13325 0.001h7.908936c27.331954 0.001999 54.662908-0.012993 81.994862-0.03998a86961.897107 86961.897107 0 0 1 104.556267-0.045976c12.963338 0 25.926676-0.012993 38.890014-0.029985 13.052292-0.016991 26.103585-0.01999 39.154877-0.005997 7.733026 0.006996 15.466052 0.003998 23.199078-0.015991 5.805017-0.012993 11.608034-0.005997 17.412052 0.009994 2.326804 0.002998 4.652609 0 6.978414-0.011993C851.644042-0.289604 911.335366 27.779971 959.028856 74.487967c2.487722 2.558685 4.750559 5.224315 6.996404 7.995891 0.969502 1.14741 1.941002 2.293821 2.912504 3.439232A228.952338 228.952338 0 0 1 990.012933 115.466907l1.28334 2.128906c19.667892 33.048016 32.896094 72.30784 32.833127 111.027942l0.006996 3.013451c0.006996 3.329289 0.006996 6.658578 0.005997 9.987867l0.010995 7.23828c0.009995 5.93395 0.013993 11.866901 0.015991 17.800852 0.002998 7.110346 0.011994 14.220692 0.01999 21.331038 0.020989 17.187167 0.031984 34.374335 0.03998 51.561502l0.014992 24.417451a223283.290702 223283.290702 0 0 1 0.045976 104.728179v2.643641c0.008995 28.255479 0.031984 56.510958 0.064967 84.766438a86371.043754 86371.043754 0 0 1 0.058969 102.036562c0.001999 12.983328 0.017991 25.966655 0.037981 38.950982 0.01999 13.07528 0.025987 26.15156 0.016991 39.226841-0.005997 7.749018 0 15.498035 0.021989 23.246054 0.014992 5.817011 0.009995 11.632022-0.004997 17.448033-0.001999 2.330802 0.001999 4.661604 0.013992 6.992406 0.288852 59.897218-21.661868 116.472143-61.473408 161.027246l-1.540208 1.731111C955.047902 953.978985 948.444295 960.797481 941.038102 967.029278l-1.619168 1.369296c-33.286893 27.973624-74.309811 46.939877-117.319708 53.602453l-3.143385 0.504741c-12.302677 1.77009-24.490414 1.779086-36.901036 1.761095l-7.256271 0.013993c-5.236309 0.009995-10.471618 0.012993-15.707927 0.010994-7.785999-0.002998-15.572997 0.005997-23.359995 0.015992-14.722434 0.01999-29.444868 0.024987-44.167302 0.025986a71510.895585 71510.895585 0 0 0-43.973401 0.016992l-2.47173 0.000999a119709.509667 119709.509667 0 0 1-84.556545 0.01899h-7.907936c-27.331954-0.001999-54.662908 0.012993-81.994862 0.03998a86961.897107 86961.897107 0 0 1-102.104527 0.045976h-2.450741c-12.963338 0-25.927675 0.012993-38.892013 0.029985-13.051293 0.016991-26.102586 0.01999-39.153878 0.005997a6623.116291 6623.116291 0 0 0-23.199078 0.015992c-5.805017 0.012993-11.608034 0.005997-17.412051-0.009995-2.326804-0.002998-4.652609 0-6.978414 0.011994-67.595262 0.304843-127.286586-27.764731-174.980075-74.472728-2.487722-2.558685-4.750559-5.224315-6.996405-7.995891a2979.50879 2979.50879 0 0 0-2.912503-3.439232A228.952338 228.952338 0 0 1 34.503982 909.05907l-1.283341-2.128906C17.738598 880.914534 7.158035 852.038373 2.520419 822.103757l-0.504741-3.143384c-1.77009-12.302677-1.779086-24.490414-1.761095-36.901036l-0.013993-7.256271c-0.009995-5.236309-0.012993-10.471618-0.010994-15.707928 0.002998-7.785999-0.005997-15.572997-0.015992-23.359995-0.01999-14.722434-0.024987-29.444868-0.025987-44.167302a71510.764652 71510.764652 0 0 0-0.016991-43.973401l-0.000999-2.47173c-0.011994-22.935213-0.01999-45.870427-0.01999-68.80464v-2.618654a1477605.597532 1477605.597532 0 0 1 0.001999-21.041187c0-27.331954-0.013993-54.662908-0.041979-81.994862a86961.897107 86961.897107 0 0 1-0.044976-102.104527v-2.45074c0-12.963338-0.012993-25.927675-0.029985-38.892013-0.016991-13.051293-0.01999-26.102586-0.005997-39.153879 0.006996-7.733026 0.003998-15.466052-0.015992-23.199077-0.012993-5.805017-0.005997-11.608034 0.009995-17.412052 0.002998-2.326804 0-4.652609-0.011994-6.978414C-0.258154 180.58944 21.687568 124.030506 61.490113 79.485399l1.540209-1.731111C69.469013 70.546992 76.072619 63.728496 83.478813 57.496699l1.619168-1.369296C118.383875 28.153779 159.406793 9.187526 202.417689 2.52495l3.143384-0.504741c12.302677-1.77009 24.490414-1.779086 36.901036-1.761095z" fill="#FB5E5E" p-id="13517"></path><path d="M335.197451 333.12505h2.715605c1.879034 0.003998 3.758069 0.011994 5.637103 0.023988 2.852534 0.017991 5.705068 0.01999 8.558601 0.019989l5.514167 0.017991 2.546691 0.002999c5.453198 0.042978 10.746477 0.483751 16.158696 1.164401v1.998973l2.088926 0.147924c6.140844 0.489748 11.918875 1.379291 17.900801 2.850535v1.998973l1.940003 0.07796c5.087386 0.333828 8.655552 0.899538 13.013312 3.748073 2.715604 1.561198 5.538154 2.577675 8.471646 3.670114 5.050405 1.884032 9.794966 3.975957 14.55552 6.496662v1.998972l2.186876 0.812583c18.300595 7.726029 42.857975 27.716756 51.223676 45.976372A135.020611 135.020611 0 0 1 489.270271 408.316408l1.062454 2.811555L491.269244 414.313326c0.259866 0.803587 0.517734 1.608174 0.784597 2.436748 5.13636 17.580965 2.329803 35.104959-6.365729 51.102738C478.425844 480.319405 467.991207 489.014936 455.287735 495.521592l-2.012965 1.035468c-14.150728 6.980413-30.854144 6.539639-45.70851 1.893027-8.379694-3.038439-14.253675-6.796507-20.706359-12.937351-13.801907-13.124255-26.922164-18.737371-45.954383-18.488499-4.617627 0.339825-8.30873 1.529214-12.552549 3.260325l-3.498202 0.812582c-12.296681 4.171856-21.108152 14.212696-26.941155 25.446923-2.800561 5.777031-4.151866 11.292197-4.542665 17.717894l-0.206894 2.916501c-0.347821 9.742993 0.959507 19.737856 6.203812 28.067576v1.998973h1.998972c1.099435 1.47824 2.128906 3.008454 3.123395 4.560656 6.546636 9.525105 16.211669 17.321098 27.66978 20.109665 4.215833 0.418785 8.38669 0.500743 12.621514 0.504741l2.485722 0.036981c5.055402 0.011994 9.225259-0.614684 14.06877-2.223857l2.693616-0.675653c5.517165-1.445257 8.489637-2.908505 12.29868-7.320238 2.578675-2.435748 5.281286-4.713578 7.99589-6.996404l2.84254-2.458737C402.278977 540.133665 418.972398 537.09023 438.296467 538.249634c6.648583 1.008482 12.99832 2.934492 18.990241 5.996918l0.999486 1.998972 3.248331 1.312326c3.803046 1.558199 5.95394 3.61914 8.745506 6.683565a722.4957 722.4957 0 0 0 3.997945 3.997946l2.076933 2.10092c1.501228 1.482238 3.073421 2.892513 4.6696 4.270805 3.237336 3.777059 4.562655 7.987895 6.24679 12.618515a232.10172 232.10172 0 0 0 1.624165 3.748074c6.488665 15.338118 5.322265 31.556783 0.374807 47.22573a151.697041 151.697041 0 0 1-3.436234 7.246276l-0.907533 1.851049c-1.566195 3.1124-3.097408 5.533156-5.651096 7.893943l-0.999487 2.561684C477.276435 650.192105 477.276435 650.192105 474.277976 652.191078a790.799597 790.799597 0 0 0-2.998459 4.997431l-1.874037 1.749101c-5.492177 5.815012-7.768008 12.493579-9.120313 20.239599h-1.998973c0.052973 3.624138 0.147924 7.246276 0.249872 10.869414l0.042978 3.068423c0.320835 10.014853 3.474215 17.874814 8.952399 26.166553l1.18739 1.806072c7.460166 11.061315 17.187167 18.416535 30.327414 21.588905 14.658467 2.133903 27.61181 0.581701 40.198342-7.528131a340.045246 340.045246 0 0 0 4.997431-3.997946h1.998973v-1.998972l2.436748-0.749615L551.238425 727.152554c0.357816-1.326318 0.686647-2.660633 0.999486-3.997945 1.3623-2.350792 2.839541-4.603634 4.329775-6.875467 4.555659-8.52362 6.370726-16.281633 6.2268-25.91968l-0.032983-3.178366c-0.462762-16.667434-7.524133-28.359426-19.390035-39.784554-7.489151-7.750017-13.401113-16.906312-19.111179-25.998639a223.794989 223.794989 0 0 0-4.165859-6.375724c-2.055943-3.141386-3.391257-6.346738-4.837514-9.80696l-1.499229-2.37378c-1.749101-3.062426-2.74459-6.118855-3.803046-9.472132-0.710635-2.291822-0.710635-2.291822-1.881033-5.02042C507.261026 586.224978 507.261026 586.224978 507.261026 583.226519h-1.998973l-0.395797-1.689131c-0.614684-2.623652-1.233366-5.246304-1.853047-7.867957l-0.68265-2.89851a354.623754 354.623754 0 0 0-5.267293-19.714869c-2.076933-9.934894-1.955995-20.187625-1.921012-30.297429l-0.011994-3.393257c0.012993-11.109291 0.586698-21.976706 3.010453-32.838124l0.487749-2.338798c1.023474-4.733567 2.346794-9.268237 3.967961-13.832891 0.687647-2.134903 1.137415-4.236823 1.541208-6.441689 0.940517-4.507683 2.70461-8.420673 4.70758-12.552549 1.182392-2.560684 2.196871-5.104377 3.198357-7.738024 2.250843-5.671086 5.149354-10.834432 8.272748-16.065743 0.572706-0.959507 1.144412-1.921013 1.73311-2.910505C529.732477 409.965561 539.0287 399.025183 549.239452 388.326681l2.303816-2.428752c18.040729-18.553465 42.304259-35.229895 67.617251-41.751543a61.018642 61.018642 0 0 0 7.226286-2.358788c8.722517-3.38526 17.465024-4.934464 26.709274-6.003914 2.992462-0.248872 2.992462-0.248872 5.087385-1.429266 23.862737-3.048433 46.246233 0.139928 69.277398 6.301762 3.87301 1.002485 7.770007 1.855047 11.680997 2.693615v1.998973l3.498202 0.499743c7.04438 1.547205 13.250191 5.185335 19.590932 8.505629A449.469012 449.469012 0 0 0 770.125936 358.342091l3.997945 1.998972v1.998973l2.146897 0.745617C781.796938 365.515404 786.379583 369.636286 791.115149 373.334386l2.732596 2.10092c14.869358 11.744964 27.171036 25.642822 37.746601 41.314768l1.603176 2.368783 1.489235 2.248844 1.333315 2.008967C837.091521 425.307676 837.091521 425.307676 837.616252 427.490554L838.091008 429.305621l1.998972 0.999487c1.374294 2.901509 1.998973 4.758555 1.998973 7.995891h1.998973c3.533184 7.440176 6.57662 14.92533 9.18328 22.738314l1.053459 3.158377c3.118397 9.656038 4.907478 18.887294 4.755556 29.075058h1.998973c3.566167 36.1934-1.175396 69.898078-13.992809 103.94658h-1.998973l-1.998973 8.995378h-1.998972l-0.812583 2.686619c-1.111429 3.101406-2.287824 5.620112-4.184849 8.30773h-1.998973l-0.179907 2.002971c-1.159404 4.233824-3.447228 7.35522-5.941947 10.927384l-1.397282 2.090926c-2.896511 4.196843-5.944945 7.462165-9.900911 10.671515-1.901023 1.566195-3.485209 3.284312-5.068396 5.166345l-1.757097 2.038953a168.551379 168.551379 0 0 0-3.420242 4.230825c-4.095895 5.07839-8.038869 7.904938-14.312645 9.84694h-1.998972v1.998973c-1.329317 0.633674-2.662632 1.255355-3.997946 1.874036l-2.248844 1.054459c-14.682454 5.714063-33.793633 4.82552-48.12027-1.406278-17.258131-8.799478-27.428904-20.926246-34.372336-38.718102-1.043464-3.25033-1.523217-5.427211-1.214376-8.780488h-1.998973c-3.079417-9.463137-1.34331-21.726834 0.31284-31.358884l0.355817-2.1399c0.744617-3.91199 1.750101-6.462679 4.328775-9.479129l1.249358-3.186362c2.748587-6.676569 7.911934-11.930869 12.806419-17.116204 9.364188-10.398656 13.467079-23.363993 13.36813-37.105931l0.059969-2.945486c-0.003998-6.197815-1.017477-10.905396-3.636131-16.532504C726.148536 498.27018 726.148536 498.27018 726.148536 495.271721h-1.998972a71.761121 71.761121 0 0 1-2.623652-4.559657c-3.663117-6.346738-8.32772-10.403653-14.367616-14.430584v-1.998973l-1.792079-0.585699c-6.808501-2.243847-6.808501-2.243847-9.82695-3.537182-9.879923-3.640129-25.233032-3.528187-35.118952 0.073962-15.407082 7.233283-25.833724 18.17466-31.862625 34.142454-1.776087 5.534156-1.894027 10.919388-1.858046 16.69542l0.01999 3.223343c0.183905 7.923928 1.242362 14.129739 5.477185 20.951233l1.761095 3.021447c3.878007 6.247789 8.321723 11.222233 13.598012 16.304621C659.112987 576.266096 668.997907 590.987531 675.174732 606.214706c1.526216 3.175368 3.042436 6.061885 4.997432 8.995377a98.485387 98.485387 0 0 1 1.437262 5.185335c1.05046 4.019934 2.248844 7.863959 3.765065 11.729972 2.555687 6.675569 4.465705 13.383122 5.916959 20.377527l0.511737 2.317809c2.341797 11.131279 2.54869 22.363507 2.546691 33.696683 0.001999 2.150895 0.01999 4.301789 0.039979 6.452684 0.032983 8.255757-0.66166 16.065744-2.223857 24.18657-0.179908 1.341311-0.346822 2.683621-0.491747 4.02893-0.779599 7.069367-2.068937 13.400114-4.517678 20.075682-0.989491 2.884518-1.620167 5.707067-2.236851 8.691534-1.536211 6.486666-4.547663 11.884892-7.808987 17.634937-1.315324 2.332801-2.368783 4.555659-3.428238 7.039382-1.619168 3.762067-3.511196 7.184308-5.629107 10.68251l-1.195386 1.974985c-18.137679 29.500839-43.45167 52.178185-73.829058 68.363867l-2.502714 1.339312-2.349792 1.22537-2.092924 1.095437C584.221475 862.083211 584.221475 862.083211 581.223015 862.083211v1.998973c-13.177228 4.392743-13.177228 4.392743-15.592986 5.190333-1.579188 0.530727-3.153379 1.081444-4.719575 1.650152-5.031414 1.799075-9.387176 2.601663-14.732428 2.841539l-3.96996 0.199897L539.244589 874.077047v1.998973c-9.112317 0.974499-18.143676 1.155406-27.295972 1.12942-2.316809-0.004997-4.634618 0-6.952428 0.006996-7.632078 0.002998-15.13822-0.182906-22.722322-1.136416v-1.998973l-2.498716-0.042977c-9.883921-0.40779-18.217638-2.671627-27.485875-5.953941l-2.436747-0.854561A215.700149 215.700149 0 0 1 444.293385 865.08167l-2.23685-0.823576c-17.301109-6.539639-33.842608-17.031247-47.737467-29.161014l-2.271833-1.905021c-4.04792-3.431237-7.399197-6.958424-10.72149-11.088302l-2.311812-2.311812c-11.417133-11.417133-20.552438-24.475422-28.422393-38.542192l-1.30333-2.322807C346.343723 773.517726 346.343723 773.517726 346.343723 770.130467h-1.998973l-5.173341-15.519025-0.925524-2.778572a7915.464136 7915.464136 0 0 1-2.528701-7.599094l-0.731624-2.196871c-0.489748-1.457251-0.998487-2.908505-1.514222-4.357761-1.789081-5.317267-2.64664-10.598553-3.3073-16.148701l-0.253869-2.133903c-0.515735-4.76755-0.627677-9.43815-0.557714-14.232686l-2.978469-0.042978c-20.302566-0.585699-39.649624-6.411705-57.990198-14.949317v-1.998973l-3.56117-0.749615c-4.342768-1.068451-7.650069-2.884518-11.431126-5.247303v-1.998973l-2.576675-0.714632c-3.83303-1.43926-6.896456-3.439233-10.166775-5.843997l-1.864043-1.359301c-5.454197-4.02793-10.496606-8.361703-15.377097-13.071283l-1.706123-1.628163c-11.414134-10.934381-21.458972-22.325527-29.726723-35.841581-1.481239-2.398767-3.058428-4.697586-4.673598-7.007399-2.699613-4.013937-4.692588-8.182795-6.598609-12.622513-0.961506-2.168885-2.02396-4.292794-3.130392-6.390715-2.832544-5.627108-4.772547-11.564057-6.762524-17.530991l-1.214376-3.636131c-2.383775-7.346225-4.233824-14.261671-4.841512-21.978705-0.262865-2.749587-0.717631-5.207324-1.320321-7.889945-1.049461-5.172342-1.269348-10.094812-1.224371-15.360107v-2.738592c0.003998-1.890029 0.011994-3.782056 0.023987-5.673085 0.01899-2.886517 0.01999-5.772034 0.01999-8.657551 0.004997-1.84905 0.010994-3.696101 0.017991-5.54415l0.002998-2.593667c0.034982-4.382748 0.288852-8.505629 1.164402-12.820412h1.998973l0.042978-2.39377c0.491747-11.624026 3.283313-22.576398 6.953426-33.587738h1.998973l0.296847-1.870039C175.821357 447.23041 177.630427 441.926136 180.428989 436.302026h1.998973l0.249871-2.06194c0.946514-3.708094 2.813554-6.670572 4.74756-9.931896l1.07045-1.839055c5.679081-9.687022 11.991837-18.287602 19.528964-26.604328 1.261352-1.399281 2.495717-2.82155 3.728084-4.246817 10.260727-11.782945 21.881755-21.036189 34.668184-29.905631a188.946898 188.946898 0 0 0 3.703097-2.636645c3.160376-2.25784 4.204839-2.732596 8.264752-2.732596v-1.998973l1.936005-0.374807L262.38687 353.344659l0.999486-1.998973c2.882519-1.568194 5.971931-2.725599 8.995377-3.997945l2.596666-1.194386c11.797937-5.277288 24.667323-8.527618 37.448754-10.342685a79.595095 79.595095 0 0 0 5.0594-0.930522c5.982925-1.324319 11.594042-1.808071 17.710898-1.755098z" fill="#FDF7F7" p-id="13518"></path><path d="M621.140501 155.884136C629.19836 162.632668 634.049867 169.876945 635.195278 180.43352c0.380804 8.280744 0.246873 15.986784-1.998972 23.987673h-1.998973l-0.639671 2.541693c-1.698127 4.316782-4.127879 7.254272-7.106348 10.764468l-1.737108 2.091925c-1.213376 1.461249-2.430751 2.9185-3.652123 4.374752-3.013451 3.595152-5.994919 7.216291-8.978386 10.836431l-1.77009 2.142899c-4.167858 5.057401-8.240765 10.178769-12.272693 15.343115-4.694587 6.009911-9.530102 11.898885-14.392603 17.772866-6.525646 7.883948-13.013312 15.784888-19.308078 23.853741-7.314241 9.35919-14.867359 18.528478-22.43547 27.683773A1041.961522 1041.961522 0 0 0 519.254862 346.348254l-2.232853 2.865528c-1.590183 2.041951-3.178367 4.084901-4.763552 6.12985-3.668115-0.567708-5.242306-1.943001-7.746019-4.622625-2.655635-2.76358-5.33226-5.381235-8.245762-7.870955-3.509197-3.01645-6.749531-6.230798-9.994864-9.526104-1.938004-1.908019-3.934978-3.694102-5.996918-5.466191a130.976689 130.976689 0 0 1-7.995891-7.496148c-2.558685-2.598665-5.165345-5.060399-7.933922-7.434179-2.988464-2.56768-5.790024-5.252301-8.557603-8.057859a171.768726 171.768726 0 0 0-10.204755-9.49512c-7.963907-6.957424-15.595985-14.24268-23.024168-21.765815a113.418713 113.418713 0 0 0-6.125852-5.595124c-22.967197-19.839804-22.967197-19.839804-24.317502-33.704679-0.099949-2.387773-0.123936-4.760553-0.107945-7.149326l0.017991-2.560684c0.199897-10.27472 2.421755-17.422047 9.290225-25.175062l1.699127-1.944001c6.033899-6.482668 12.800422-8.413676 21.289059-10.049835v-1.998973c2.394769-0.026986 4.789539-0.046976 7.184308-0.062968l2.038952-0.024987c3.724086-0.017991 7.146327 0.1949 10.766467 1.087441v1.998973l2.436748 0.124936c10.002859 2.456737 17.945777 11.194247 24.944181 18.295597 5.027416 5.084387 10.166775 9.914905 15.596985 14.562517 8.577592 7.509141 8.577592 7.509141 11.931868 10.932381 1.889029 2.106917 1.889029 2.106917 4.059913 3.060427l1.913017-2.463733c7.006399-8.987381 14.205699-17.802851 21.473964-26.579341a703.816299 703.816299 0 0 0 4.313783-5.287283l2.345795-2.900509 1.971986-2.45174C537.245616 193.426843 537.245616 193.426843 539.740334 191.068055c2.338798-2.466732 3.811041-4.841512 5.416216-7.815983 1.943001-3.260324 4.497689-5.996918 7.019393-8.816469 3.073421-3.46422 6.046892-6.896456 8.694532-10.701501 5.540153-7.928925 13.906853-14.170717 23.510917-15.960797 14.04878-1.603176 25.060121-0.534725 36.759109 8.108832z" fill="#FEFDFD" p-id="13519"></path><path d="M450.290304 541.248093l0.999486 1.998972-1.762095-0.428779c-6.825492-1.527215-13.311159-1.873037-20.289572-1.820065l-3.101407-0.022988c-7.670058 0.01999-14.640476 0.782598-21.697849 3.895998C401.315472 546.245524 401.315472 546.245524 398.317013 546.245524v1.998973l-5.996918 1.998973c3.889001-4.466705 7.437178-6.338742 12.993323-8.245763l2.115912-0.772602c12.855393-4.608632 30.109526-5.354248 42.860974 0.022988z" fill="#F4B1B1" p-id="13520"></path><path d="M566.23072 372.334899l1.998973 0.999487-27.985618 27.985618-1.998973-0.999487c8.89343-9.824951 17.858822-19.404028 27.985618-27.985618z" fill="#FADEDE" p-id="13521"></path><path d="M731.145968 515.261448h0.999486c0.774602 15.1782-0.321835 27.403917-10.639532 39.502699L720.151618 556.240388c0-3.573164 0.85656-4.567653 2.811555-7.496148 2.903508-4.65061 4.409734-9.020364 5.641101-14.34063C729.146995 532.252716 729.146995 532.252716 730.146482 531.253229a225.783967 225.783967 0 0 0 0.56271-8.058858l0.129934-2.29682c0.106945-1.879034 0.206894-3.758069 0.306842-5.636103z" fill="#F3B4B4" p-id="13522"></path><path d="M488.270785 578.229088c4.324777 2.883518 4.372753 5.843997 5.427211 10.787456 0.809584 5.087386 0.863556 10.182767 0.881547 15.324125l0.016991 2.80056c-0.070964 6.682566-0.070964 6.682566-2.327804 10.067826l0.034982-3.61914c0.208893-15.47005 0.208893-15.47005-3.412246-30.418367C488.270785 581.227547 488.270785 581.227547 488.270785 578.229088z" fill="#EE9B9B" p-id="13523"></path><path d="M230.403306 373.334386l1.998973 0.999486-20.989213 20.989214-1.998973-0.999487c6.522648-7.593098 13.52305-14.344628 20.989213-20.989213z" fill="#FAD9D9" p-id="13524"></path><path d="M642.191683 820.104785l2.998459 0.999486-10.99435 10.99435-2.998459-0.999487 10.99435-10.994349z" fill="#EF6F6F" p-id="13525"></path><path d="M699.162405 620.207514h0.999486l5.996918 17.990755c-3.097408-2.787567-4.619626-5.075392-5.996918-8.995377l-0.999486-0.999487c-0.140928-2.668629-0.041978-5.321265 0-7.995891z" fill="#F0A8A8" p-id="13526"></path><path d="M472.279003 653.190564c0 2.998459 0 2.998459-2.311812 5.497175L467.281571 661.186455l-1.812068 1.812069L464.283112 664.184914l-2.998459-0.999487a90.441521 90.441521 0 0 1 3.997946-3.997945h1.998972l0.999487-2.998459c2.06194-1.687133 2.06194-1.687133 3.997945-2.998459z" fill="#F7CCCC" p-id="13527"></path><path d="M616.205038 225.410406c0 3.213349-0.264864 4.353763-1.998973 6.996404-2.623652 1.749101-2.623652 1.749101-4.997432 2.998459 1.667143-3.938976 4.224829-6.786512 6.996405-9.994863z" fill="#F18686" p-id="13528"></path><path d="M657.183978 802.11403c0.749615 1.749101 0.749615 1.749101 0.999486 3.997946-1.812069 2.248844-1.812069 2.248844-3.997945 3.997945h-1.998973c1.371295-2.952483 2.987465-5.437206 4.997432-7.995891z" fill="#F07C7C" p-id="13529"></path><path d="M488.270785 578.229088l2.998459 1.998972c0.29285 2.162888 0.29285 2.162888 0.187903 4.622625l-0.082957 2.475727L491.269244 589.223438h-0.999486l-1.998973-10.99435z" fill="#EE9D9D" p-id="13530"></path></svg>