<?xml version="1.0" standalone="no"?><!DOCTYPE svg PUBLIC "-//W3C//DTD SVG 1.1//EN" "http://www.w3.org/Graphics/SVG/1.1/DTD/svg11.dtd"><svg t="1782219011452" class="icon" viewBox="0 0 1024 1024" version="1.1" xmlns="http://www.w3.org/2000/svg" p-id="14457" xmlns:xlink="http://www.w3.org/1999/xlink" width="200" height="200"><path d="M459.459 152.48c-37.56 8.721-61.263 18.559-86.303 35.328-30.406 20.347-62.826 58.802-78.029 92.338-13.414 29.737-22.804 76.465-21.688 107.766l0.447 8.943-24.593 3.577c-31.079 4.471-46.507 8.943-70.428 20.347-65.061 31.3-108.66 84.067-126.545 152.709-5.144 19.896-5.817 78.025-1.12 98.372 13.64 59.474 46.729 107.995 96.362 140.855 19.23 12.527 48.964 25.941 67.075 30.187 6.707 1.567 15.203 3.577 18.78 4.694 3.578 1.12 21.463 2.013 39.8 2.013 26.156 0 36.891-0.894 50.527-4.474 41.363-10.954 72.216-26.826 99.27-50.975 10.063-9.168 74.452-80.49 138.172-153.153 11.626-13.414 27.28-31.078 34.652-39.574 7.38-8.274 22.136-25.266 32.867-37.56C658 530.332 677.673 517.812 710.54 512c43.82-7.827 94.798 18.115 115.367 58.58 8.721 17.438 14.756 40.912 14.756 57.907 0 18.333 10.063 34.88 27.723 46.281 7.827 5.14 11.626 5.813 27.054 5.813 14.087 0.222 19.675-0.894 26.832-4.693 31.966-16.995 38.455-54.108 20.566-115.818-15.647-53.661-55.672-102.847-107.544-131.912-19.45-10.957-57.01-22.582-81.831-25.712-11.626-1.342-22.808-2.909-24.593-3.578-2.683-0.672-3.352-6.038-3.581-29.511-0.218-21.467-1.56-33.092-5.14-46.507-13.19-48.292-30.632-78.254-65.287-111.565-31.522-30.184-67.745-49.411-109.78-58.132-17.432-3.803-71.315-4.25-85.623-0.673z m70.427 109.333c34.434 7.827 66.628 38.68 78.701 75.346 5.813 17.886 5.588 52.767-0.672 70.205-11.626 33.09-31.748 55.003-62.376 67.97-17.885 7.823-20.343 8.27-43.82 8.27-15.203 0.226-27.723-0.894-32.42-2.682-13.861-5.366-35.772-16.992-43.151-23.03-10.06-8.27-26.607-33.758-32.42-50.08-6.26-17.886-6.482-52.542-0.447-70.875 9.615-29.515 30.631-53.661 59.027-67.523 23.92-11.625 48.735-14.086 77.578-7.601zM320.393 521.837c57.46 27.505 79.817 94.795 51.647 154.498-19.9 41.585-71.1 67.294-117.381 58.354-21.016-4.027-29.29-7.376-46.504-19.227-36.67-24.593-55.45-75.346-43.823-118.275 9.39-35.997 38.68-68.861 70.427-79.37 15.65-5.141 19.674-5.592 44.94-4.92 22.135 0.67 25.04 1.339 40.694 8.94z m552.69 223.355c-12.298 5.813-24.593 18.333-29.29 29.74-4.246 10.285-4.028 32.864 0.447 41.807 11.404 22.36 27.727 32.867 51.873 32.867 17.66 0 31.525-6.26 42.257-19.227 14.53-17.22 17.882-36.666 9.39-56.119-8.943-21.016-25.04-31.973-48.968-33.536-11.844-0.669-16.537 0-25.71 4.468z" p-id="14458"></path></svg>