<?xml version="1.0" standalone="no"?><!DOCTYPE svg PUBLIC "-//W3C//DTD SVG 1.1//EN" "http://www.w3.org/Graphics/SVG/1.1/DTD/svg11.dtd"><svg t="1782218659711" class="icon" viewBox="0 0 1024 1024" version="1.1" xmlns="http://www.w3.org/2000/svg" p-id="6159" xmlns:xlink="http://www.w3.org/1999/xlink" width="200" height="200"><path d="M268.416 528.512l0.032 3.2c2.144 132.736 109.344 239.488 241.088 239.488 132.8 0 240.672-108.48 241.12-242.688h238.272v92.224a16 16 0 0 1-16 16H874.24a15.84 15.84 0 0 1-6.304-1.28c-6.528 21.92-15.04 42.976-25.28 62.976a16.352 16.352 0 0 1 5.248 3.488l69.792 69.792a16 16 0 0 1 0 22.624l-136.384 136.384a16 16 0 0 1-22.624 0l-69.792-69.792a16.448 16.448 0 0 1-2.304-2.912c-20.32 10.944-41.792 20.096-64.16 27.168a15.584 15.584 0 0 1 0.128 2.112v98.688a16 16 0 0 1-16 16h-192.896a16 16 0 0 1-16-16v-98.688c0-0.64 0.032-1.28 0.128-1.92a370.528 370.528 0 0 1-63.008-26.4 11.84 11.84 0 0 1-1.056 1.152L263.936 929.92a16 16 0 0 1-22.624 0l-136.384-136.384a16 16 0 0 1 0-22.624L174.72 701.12a16.64 16.64 0 0 1 2.496-2.048 372.32 372.32 0 0 1-25.344-62.688 15.072 15.072 0 0 1-3.2 0.32H49.984a16 16 0 0 1-16-16v-92.224h234.432v0.032zM153.44 312.032a136.256 136.256 0 0 0 115.264 0h13.216c2.624 0 5.216 0.192 7.776 0.576a124.8 124.8 0 0 0-19.552 65.984v90.208c0 3.136 0.32 6.208 0.928 9.152H34.016v-8.096c0-59.456 47.584-157.792 106.24-157.792h13.216l-0.032-0.032z m297.44-41.76a145.216 145.216 0 0 0 123.52 0h14.144c62.88 0 113.888 51.968 113.888 116.032v86.048c0 1.888-0.128 3.744-0.352 5.568H323.232a45.632 45.632 0 0 1-0.352-5.568v-86.048c0-64.064 51.008-116.032 113.888-116.032h14.112z m302.848 41.76a135.84 135.84 0 0 0 113.824 0.672l1.44-0.64h13.216c58.08 0 105.312 96.416 106.24 156v9.888h-237.056a42.88 42.88 0 0 0 0.928-8.416v-90.944a125.376 125.376 0 0 0-19.552-65.984c2.144-0.32 4.288-0.512 6.464-0.544l1.312-0.032h13.184zM209.92 80.64c55.424 0 100.352 45.984 100.352 102.72S265.344 286.08 209.92 286.08c-55.424 0-100.352-45.984-100.352-102.72S154.496 80.64 209.92 80.64z m602.624 0c55.424 0 100.352 45.984 100.352 102.72s-44.928 102.72-100.352 102.72c-55.424 0-100.352-45.984-100.352-102.72s44.928-102.72 100.352-102.72zM511.456 22.016c59.328 0 107.424 49.696 107.424 111.008s-48.096 111.008-107.424 111.008c-59.328 0-107.424-49.696-107.424-111.008S452.128 22.016 511.456 22.016z" p-id="6160"></path></svg>