<?xml version="1.0" standalone="no"?><!DOCTYPE svg PUBLIC "-//W3C//DTD SVG 1.1//EN" "http://www.w3.org/Graphics/SVG/1.1/DTD/svg11.dtd"><svg t="1782222802982" class="icon" viewBox="0 0 1024 1024" version="1.1" xmlns="http://www.w3.org/2000/svg" p-id="40481" xmlns:xlink="http://www.w3.org/1999/xlink" width="200" height="200"><path d="M784.896 167.350857a160.914286 160.914286 0 0 0-124.342857 44.470857 164.790857 164.790857 0 0 0-43.008 121.709715v64.365714h-134.582857v108.836571h134.582857v349.915429h133.412571v-349.915429h154.477715v-108.836571h-154.477715v-60.562286a58.514286 58.514286 0 0 1 12.873143-43.885714 53.174857 53.174857 0 0 1 39.789714-14.043429h109.714286v-112.347428z" fill="#0938F7" p-id="40482"></path><path d="M402.870857 394.093714v128h-219.428571V394.093714z" fill="#0938F7" p-id="40483"></path><path d="M421.156571 856.649143h-128V394.093714h128z" fill="#0938F7" p-id="40484"></path><path d="M110.299429 856.649143v-128h803.328v128z" fill="#0938F7" p-id="40485"></path><path d="M337.042286 251.465143m-84.114286 0a84.114286 84.114286 0 1 0 168.228571 0 84.114286 84.114286 0 1 0-168.228571 0Z" fill="#0938F7" p-id="40486"></path></svg>