<?xml version="1.0" standalone="no"?><!DOCTYPE svg PUBLIC "-//W3C//DTD SVG 1.1//EN" "http://www.w3.org/Graphics/SVG/1.1/DTD/svg11.dtd"><svg t="1716019916031" class="icon" viewBox="0 0 1271 1024" version="1.1" xmlns="http://www.w3.org/2000/svg" p-id="3633" xmlns:xlink="http://www.w3.org/1999/xlink" width="248.2421875" height="200"><path d="M59.722388 818.497607h-52.692651V755.266426h54.449073v-17.564217c0-79.038977 36.884856-107.141724 108.898145-107.141724a275.758207 275.758207 0 0 1 47.423386 5.269265l-5.269265 63.231181-29.859169-3.512843c-22.833482 0-31.615591 15.807795-31.61559 42.154121v17.564217h64.987603v63.231181H151.056317V1018.729681H59.722388zM252.928775 637.586172h91.333929V1018.729681h-91.333929zM389.929668 642.855437h91.333929v67.095309h-91.333929zM389.929668 753.510004h91.333929v263.990182h-91.333929zM728.919057 829.036137a100.116037 100.116037 0 0 0-56.205495-14.051373 66.744025 66.744025 0 0 0-68.500446 72.013289 72.01329 72.01329 0 0 0 73.769711 70.256868 147.539423 147.539423 0 0 0 57.961917-12.294951v68.500446a270.488942 270.488942 0 0 1-75.526134 10.53853c-86.064663 0-152.808688-50.936229-152.808688-137.000893s66.744025-138.757314 152.808688-138.757314a163.347218 163.347218 0 0 1 73.769712 14.051373l-7.025687 66.744025zM776.342443 637.586172h91.333928v226.578399l77.282555-110.654567h100.116037l-93.09035 121.193097 100.116037 144.02658h-110.654567l-73.769712-131.731628V1018.729681h-91.333928V637.586172z" fill="#005DDE" p-id="3634"></path><path d="M1266.384098 827.279715a91.333929 91.333929 0 0 0-31.615591-3.512843c-42.154121 0-66.744025 31.615591-66.744025 82.55182V1018.729681h-91.333928V753.510004H1160.998796v49.179808c15.807795-33.372012 38.641277-54.449073 79.038976-54.449073h31.615591l-5.269265 79.038976z" fill="#FF2D82" p-id="3635"></path><path d="M611.238803 303.866048A305.617376 305.617376 0 1 1 305.621427 0.005094a305.617376 305.617376 0 0 1 305.617376 303.860954z" fill="#005DDE" p-id="3636"></path><path d="M1269.896941 303.866048A305.617376 305.617376 0 1 1 966.035987 0.005094a305.617376 305.617376 0 0 1 303.860954 303.860954z" fill="#FF2D82" p-id="3637"></path></svg>