<?xml version="1.0" standalone="no"?><!DOCTYPE svg PUBLIC "-//W3C//DTD SVG 1.1//EN" "http://www.w3.org/Graphics/SVG/1.1/DTD/svg11.dtd"><svg t="1782222761464" class="icon" viewBox="0 0 1158 1024" version="1.1" xmlns="http://www.w3.org/2000/svg" p-id="39193" xmlns:xlink="http://www.w3.org/1999/xlink" width="226.171875" height="200"><path d="M578.885947 0.072411a33.965392 33.965392 0 0 0-24.036003 10.173778L7.820447 565.020294a27.084062 27.084062 0 0 0-7.821544 19.079227v0.036206a27.334108 27.334108 0 0 0 27.335238 27.335239h101.556749v389.786251a22.729206 22.729206 0 0 0 22.741652 22.741652h383.626771V846.189702L387.976004 698.725365a114.850998 114.850998 0 0 1-45.727691 9.341049 116.893221 116.893221 0 1 1 107.674366-71.364661l85.335502 85.335502V462.558405a116.906798 116.906798 0 1 1 87.685473 0V722.041781l85.231411-85.340028a115.179111 115.179111 0 0 1-9.232432-45.546663v-0.181028a117.015415 117.015415 0 1 1 70.527405 107.457133l0.760318 0.289645-147.282176 147.468862v177.798984h383.66637a22.713366 22.713366 0 0 0 22.700921-22.700921V611.470966h101.917673a27.412176 27.412176 0 0 0 19.15277-7.820413 27.337502 27.337502 0 0 0 0.362056-38.667596L1029.316602 440.799962V245.073542a22.791434 22.791434 0 0 0-22.741651-22.809538h-94.853053a22.791434 22.791434 0 0 0-22.741652 22.809538v53.258458L603.397148 10.101366A34.006123 34.006123 0 0 0 579.211797 0h-0.32585z m0.181028 307.093759a46.81386 46.81386 0 0 0 0 93.626588h0.036205a46.741448 46.741448 0 0 0 46.741449-46.741448v-0.036206a46.818385 46.818385 0 0 0-46.78218-46.848934z m-236.854867 237.033633h-0.036206a46.741448 46.741448 0 0 0-46.741448 46.741448v0.036206a46.777654 46.777654 0 1 0 93.554176 0v-0.036206a46.741448 46.741448 0 0 0-46.741448-46.741448h-0.036206z m473.673528 0a46.81386 46.81386 0 1 0 46.777654 46.777654v-0.036206a46.741448 46.741448 0 0 0-46.741448-46.741448z" fill="#41BDF5" p-id="39194"></path></svg>