<?xml version="1.0" standalone="no"?><!DOCTYPE svg PUBLIC "-//W3C//DTD SVG 1.1//EN" "http://www.w3.org/Graphics/SVG/1.1/DTD/svg11.dtd"><svg t="1758205183576" class="icon" viewBox="0 0 1277 1024" version="1.1" xmlns="http://www.w3.org/2000/svg" p-id="5588" xmlns:xlink="http://www.w3.org/1999/xlink" width="249.4140625" height="200"><path d="M332.80054002 561.33550885V339.60209531h120.96935368l-0.78721936 188.40780003c-0.78721934 186.57095454-0.78721934 188.14539322-6.56015926 200.47849472-6.82256611 14.95716522-24.40379619 34.63764537-38.57374209 42.77224334-12.59550721 7.34737978-35.16245902 11.80828785-58.51662905 11.80828901H332.80054002v-221.73341356zM481.06016044 502.03166046c0.26240683-155.08218653 0.78721934-282.61169949 1.04962503-283.66132451 0-1.31203186 26.76545309-2.0992512 59.30384838-2.09925121H600.4550754v13.12031972c0 9.97144349-1.04962617 13.12032085-3.9360967 13.12032086-3.14887737 0-3.93609557 3.41128305-3.93609557 15.74438342 0 12.59550721 0.78721934 15.74438455 4.1985024 15.74438456 3.67368989 0 4.19850241 2.88647054 3.14887624 20.20529381-0.52481251 12.59550721-2.0992512 20.46769949-4.1985024 21.25491881-4.98572175 1.57443869-4.46090923 60.87828595 0.52481365 60.87828595 2.88647054 0 3.67368989 8.1345991 3.93609558 41.72261833 0.26240683 37.78652274-0.26240683 41.98502514-4.1985024 43.0346513-3.41128305 0.78721934-3.41128305 1.31203186-0.78721934 1.31203186 2.0992512 0.26240683 50.11962313-55.10534485 106.27459414-122.80619805l102.33849854-123.06860489 72.94898177-0.26240568h72.68657379v8.92181732c0 10.23385031 9.18422414-1.57443869-102.33849856 131.72801648-46.97074688 56.15497102-90.79261641 108.63625216-97.6151825 116.77085016l-12.33310153 14.95716521 12.33310153 14.43235272c6.82256611 8.1345991 22.30454499 26.50304738 34.63764535 41.46021148 12.33310151 14.6947584 23.61657685 28.07748494 24.92860873 29.65192476 1.57443869 1.57443869 37.78652274 44.87149567 80.8211729 96.56555748 70.32491691 84.49486279 77.93470237 94.46630627 77.93470349 102.86331108v9.44663096l-72.68657492-0.52481365-72.68657493-0.7872182-22.04213817-26.24064171c-12.33310151-14.43235271-29.91433045-35.68727155-39.62336712-47.4955594-43.297057-53.00609365-158.49346958-189.98223872-159.28068891-189.19501824-0.52481251 0.52481251-1.04962617 38.83614777-1.04962504 85.28208214-0.26240683 90.79261641-1.31203186 100.76405988-14.69475955 126.74229361-9.18422414 18.63085511-25.45342123 35.16245902-41.7226183 43.29705701-11.02106852 5.24812857-19.41807445 7.08497294-38.83614777 8.13459909l-24.66620189 1.57443869 0.52481253-281.82448127zM332.80054002 267.44033402V216.27108474l59.82866093 0.52481253 59.56625406 0.78721933 0.78721933 50.64443563 0.52481367 50.38202994H332.80054002v-51.16924815zM340.67273231-5.46232881V-14.64655295h566.79783879v18.36844829h-566.79783879v-9.18422415z" fill="#FFFFFF" p-id="5589"></path><path d="M-527.08494595 494.421875V-481.81947083h2436.20588164v1952.48269166H-527.08494595V494.421875z m1765.58964128 828.48589871c152.59267914-45.73382961 258.13228343-156.55041499 288.47492078-302.98661496 7.91546969-36.93886179 8.35521876-69.04049155 8.35521876-517.58381406 0-523.74028942 0.43974907-510.54783867-26.38490155-578.26908492-42.65559004-106.85884956-133.2437511-193.92902389-238.7833573-230.42813663C1197.60809773-331.42553316 1176.50017726-332.30503124 698.93346459-332.30503124c-476.68721647 0-486.80142764 0.43974907-561.1188984 25.94515438C30.51596762-269.42101509-67.108167-173.11612577-103.16753258-68.45601773c-24.18616007 69.48024062-23.74641103 52.7698031-23.74641099 570.3536153 0 507.46960097 0 502.19261989 20.22842424 562.43814363 46.61332581 138.52073218 170.62236195 244.06033644 311.78158276 265.608006 12.31295457 1.75899433 242.7410912 3.07823769 512.30683298 2.63849051 483.72318995-0.43974907 490.75916343-0.8794962 521.10179892-9.674464z m-306.94435075-1667.08601049c-127.52702287-0.8794962-335.96774281-0.8794962-463.93451477 0-127.52702287 0.43974907-22.86691483 0.8794962 232.18713098 0.87949811s359.71415385-0.43974907 231.74738379-0.87949811z" fill="#EFF2F9" p-id="5590"></path><path d="M356.41711689 779.13282568c0-2.0992512 1.83684438-3.93609557 3.9360967-3.93609557s3.93609557-1.04962617 3.93609557-2.09925121c0-1.31203186 6.03534791-2.36165803 13.12032085-2.36165802 10.75866283-0.26240683 13.12032085 0.52481251 13.12031973 4.46090923 0 4.98572175-9.44663097 7.87219229-25.19101441 7.87219228-6.2977536 0-8.92181731-1.31203186-8.92181844-3.93609671zM500.74064058 779.13282568c0-2.0992512 1.83684438-3.93609557 3.93609671-3.93609557s3.93609557-1.31203186 3.93609557-2.88647055c0-1.83684438 2.62406372-2.36165803 6.2977536-1.31203185 3.67368989 0.78721934 9.44663097 0.52481251 13.12032086-1.04962618 6.03534791-2.36165803 6.82256611-1.83684438 6.8225661 3.6736899 0 7.08497294-5.51053426 9.44663097-22.82935749 9.44663096-8.3970048 0-11.28347534-1.04962617-11.28347535-3.93609671zM590.74603763 685.97855127c1.31203186-5.77294108 0.52481251-8.3970048-2.88647055-10.23384918-3.14887737-1.83684438-3.67368989-3.41128305-1.57443754-4.72331605 1.57443869-1.31203186 3.93609557-6.03534791 4.98572176-10.496256 0.78721934-4.98572175 3.41128305-8.65941163 5.51053423-8.65941164 2.88647054 0 3.67368989 4.72331491 3.67368987 20.99251315 0 19.68048014-0.26240683 20.99251201-5.51053536 20.992512-4.72331491 0-5.51053426-1.04962617-4.19850241-7.87219228zM591.00844446 510.16625955c-1.04962617-5.77294108-2.62406372-10.496256-3.93609557-10.49625598s-2.36165803-1.04962617-2.36165804-2.62406487c0-1.31203186 1.57443869-2.62406372 3.41128306-2.6240637 1.83684438 0 3.14887737-4.19850241 3.41128306-11.80828786 0.26240683-8.3970048-0.52481251-11.80828785-3.14887624-11.80828899-2.36165803 0-3.67368989-3.14887737-3.67368988-9.18422414 0-6.2977536 1.31203186-9.18422414 3.93609557-9.18422415 2.0992512 0 3.93609557-1.83684438 3.93609671-3.93609557s-1.83684438-3.93609557-3.93609671-3.93609671-3.93609557-2.36165803-3.93609557-5.24812742 1.83684438-5.24812857 3.93609557-5.24812857 3.93609557-1.83684438 3.93609671-3.93609672 1.83684438-3.93609557 3.93609557-3.93609558c3.14887737 0 3.93609557 3.93609557 3.9360967 20.73010633 0 17.31882326 0.78721934 20.99251201 4.4609081 21.77973132 3.41128305 0.52481251 2.88647054 1.83684438-2.6240637 7.34737977-7.08497294 6.56016044-9.18422414 16.7940096-4.46090923 19.68048016 1.57443869 0.78721934 2.62406372 6.82256611 2.62406483 13.38272654 0 15.48197774-7.08497294 16.26919709-9.44663094 1.04962614zM592.58288313 417.01198515c0-2.0992512-1.83684438-3.93609557-3.93609671-3.93609556-4.19850241 0-5.51053426-9.44663097-1.83684436-11.02106965 1.31203186-0.26240683 3.14887737-4.72331491 3.93609557-9.18422417 1.31203186-6.56016044 0.78721934-8.65941163-2.09925121-8.65941161-3.41128305 0-3.93609557-6.2977536-3.93609557-38.04892842 0-21.51732565 1.04962617-38.04892843 2.36165802-38.04892956s3.14887737-3.41128305 4.1985024-7.8721923c1.04962617-4.19850241 3.41128305-7.87219229 5.51053426-7.87219229 3.14887737 0 3.67368989 10.496256 3.67368989 64.28957014 0 55.36775168-0.52481251 64.28957013-3.93609672 64.289569-2.0992512 0-3.93609557-1.83684438-3.93609557-3.93609558zM592.58288313 285.80878231c0-2.0992512-1.83684438-3.93609557-3.93609671-3.93609672-3.14887737 0-3.93609557-4.46090923-3.93609557-23.61657685s0.78721934-23.61657685 3.93609557-23.61657571c2.0992512 0 3.93609557-1.83684438 3.93609671-3.93609671s1.83684438-3.93609557 3.93609557-3.93609558c3.41128305 0 3.93609557 5.24812857 3.93609672 31.488768s-0.52481251 31.48876914-3.93609672 31.48876915c-2.0992512 0-3.93609557-1.83684438-3.93609557-3.93609558z" fill="#EFF2F9" p-id="5591"></path><path d="M742.94175361 687.81539678c-1.04962617-2.0992512-4.19850241-4.19850241-6.56016043-5.24812859-2.62406372-0.78721934-4.72331491-3.67368989-4.72331491-5.77294106 0-4.98572175-4.46090923-9.97144349-11.02106852-12.59550721-2.62406372-0.78721934-4.72331491-3.41128305-4.72331605-5.51053424 0-1.83684438-2.36165803-4.19850241-5.24812743-4.98572175-3.14887737-0.78721934-5.24812857-3.67368989-5.24812857-6.82256726 0-3.67368989-2.36165803-6.56016044-6.82256614-8.13459797-3.67368989-1.57443869-7.34737978-4.98572175-8.1345991-7.87219228-1.04962617-3.93609557-3.67368989-5.24812857-9.97144347-5.24812856-4.72331491 0-9.18422414-1.04962617-9.70903668-2.62406373-0.26240683-1.31203186-14.95716522-3.14887737-32.53839414-4.1985024l-31.75117597-1.83684438-1.5744387 18.10604146c-1.04962617 9.97144349-1.83684438 24.9286087-1.83684436 33.32561353 0 13.12032085-0.52481251 14.95716522-5.24812857 14.95716521-4.98572175 0-5.24812857-1.83684438-5.24812744-41.72261831 0-40.93539895 0-41.72261833 6.03534678-43.297057 15.48197774-4.19850241 75.57304548 0.78721934 77.40988984 6.56015929 0.52481251 1.31203186 3.93609557 2.36165803 7.34737976 2.36165804 3.41128305 0 6.2977536 1.04962617 6.29775362 2.36165802s1.57443869 2.88647054 3.67368989 3.41128306c2.88647054 0.52481251 43.55946382 47.23315372 62.71513144 71.89935558l4.98572173 6.2977536h-8.1345991c-4.19850241 0-8.92181731-1.57443869-9.97144348-3.41128305zM821.92608214 580.75358217c-4.19850241-4.46090923-19.15566763-15.74438455-33.32561352-25.1910144-14.1699459-9.44663097-28.86470429-21.51732565-32.80080098-27.02785993-3.93609557-5.51053426-12.85791403-16.7940096-19.94288697-24.9286087-9.44663097-10.496256-12.33310151-15.74438455-10.49625601-18.36844828 1.31203186-1.83684438 13.90753906-17.05641643 28.07748493-33.58802034l25.71582807-30.43914298 10.75866283 3.93609671c27.55267243 9.70903666 79.77154787 43.297057 108.63625216 69.80010326 9.70903666 8.92181731 11.54588217 12.07069469 11.54588217 20.73010632 0 9.44663097-2.0992512 12.07069469-32.01358167 41.46021262-36.73689657 35.94967723-42.24743197 38.31133525-56.15497101 23.61657572zM445.3728889 500.98203545c-0.52481251-71.89935559-0.52481251-66.12641451 0-70.06251123 0.26240683-3.67368989 26.76545309-12.59550721 36.99930341-12.59550721h6.56016042v120.70694684l-7.34737978 2.88647054c-3.93609557 1.83684438-12.07069469 6.56016044-17.58122894 10.496256-18.63085511 13.64513337-18.36844829 14.6947584-18.63085511-51.43165495zM592.58288313 496.5211262c0-4.46090923 0.26240683-7.60978546 0.78721934-7.08497295 0.26240683 0.52481251 3.41128305 4.19850241 6.82256613 8.39700481l6.2977536 7.08497295h-6.82256613c-6.2977536 0-7.08497294-1.04962617-7.08497294-8.39700481zM592.58288313 439.31653016v-47.23315373h38.04892843c20.99251201 0 38.04892843 0.78721934 38.04892957 2.09925121 0 1.57443869-48.28277874 60.61588025-68.48807253 83.97005027l-7.60978547 8.65941163v-47.49555938zM224.4266947 413.60070211c-30.43914297-30.43914297-33.3256135-34.11283284-33.32561352-42.7722445 0-8.1345991 2.36165803-11.80828785 15.21957091-24.6662019 24.14138935-24.14138935 74.26101248-61.92791211 104.70015658-78.98432852 7.60978546-4.19850241 13.90753906-8.3970048 13.9075402-9.44663096 0-1.31203186 3.67368989-2.0992512 7.87219115-2.09925121 7.34737978 0 7.87219229 0.78721934 7.87219229 9.18422413 0 9.18422414-6.56016044 18.10604258-17.05641644 22.30454501-4.46090923 1.83684438-3.67368989 2.36165803 3.4112842 2.36165689 6.56016044 0.26240683 8.3970048 1.31203186 8.3970048 5.5105354 0 2.88647054 1.31203186 5.24812857 2.62406373 5.24812743 1.57443869 0 2.62406372 2.0992512 2.62406371 4.98572174 0 3.93609557 2.62406372 4.98572175 13.90754019 6.56016044 30.17673728 3.41128305 91.31742891 0.52481251 90.7926164-4.72331494-0.26240683-1.57443869-0.26240683-8.3970048 0-15.21957204 0.26240683-12.59550721 0.26240683-12.59550721 9.44663096-12.5955072 6.2977536 0 9.18422414 1.31203186 9.18422415 3.93609556s2.88647054 3.93609557 9.18422414 3.93609672c8.3970048 0 9.18422414 0.78721934 9.18422414 7.34737863 0 3.93609557 1.04962617 8.3970048 2.36165802 9.97144349 1.57443869 1.31203186 3.41128305 8.65941163 4.4609081 16.26919823 1.57443869 12.59550721 1.31203186 13.64513337-3.67368989 13.64513223-2.88647054 0-5.77294108-1.31203186-6.2977536-3.14887624-1.04962617-3.14887737-9.18422414-0.78721934-42.77224334 12.0706947-11.80828785 4.46090923-43.297057 5.77294108-43.297057 1.57443868 0-1.57443869-8.65941163-2.62406372-20.99251313-2.62406487s-20.99251201 1.04962617-20.992512 2.62406487-2.36165803 2.62406372-5.24812858 2.62406371c-4.98572175 0-5.24812857 1.83684438-5.24812856 24.40379507l-0.26240569 24.14139048-14.69475955 10.49625601c-7.87219229 5.77294108-22.04213817 17.31882326-30.96395548 25.71582806-14.1699459 12.85791403-18.10604258 14.95716522-26.76545307 14.95716407-9.44663097 0-12.07069469-2.0992512-43.55946382-33.58801919zM962.31350913 440.36615519c-18.36844829-19.94288697-66.91363385-54.84293916-103.3881236-74.52341931-11.54588217-6.2977536-21.51732565-11.80828785-22.04213816-12.07069468-1.31203186-1.31203186 35.42486471-45.39630819 46.44593438-55.63015852 10.75866283-10.23385031 17.84363577-12.33310151 34.11283283-9.97144348l12.33310039 1.57443869-10.23384918-5.51053427c-17.05641643-9.18422414-17.84363577-10.75866283-8.92181845-20.99251314 4.98572175-5.77294108 8.1345991-7.87219229 9.18422414-5.51053425 0.52481251 1.57443869 2.36165803 3.14887737 3.93609671 3.14887736 9.70903666 0 79.77154787 49.85721742 109.94828401 78.19710921 21.25491883 19.94288697 23.35417004 22.82935751 23.35417003 31.75117481 0 8.65941163-2.62406372 12.33310151-33.58802032 43.03465017-31.75117484 31.75117484-33.85042603 33.3256135-44.08427637 33.3256135-8.1345991 0-12.07069469-1.57443869-17.05641641-6.8225661zM723.78608598 317.55995713c-9.70903666-5.24812857-66.65122702-12.07069469-101.55127922-12.07069467h-29.91433045l0.78721934-9.70903667 0.78721935-9.97144348 24.40379619-0.78721934c13.12032085-0.26240683 24.14138935-1.83684438 24.14138938-3.14887738 0-1.57443869 6.03534791-2.62406372 13.12031969-2.62406371 9.44663097 0 13.12032085 1.04962617 13.12032087 3.67368989 0 4.72331491 12.33310151 7.08497294 28.60229746 4.98572175 9.97144349-1.04962617 14.1699459-0.52481251 17.05641642 2.6240637 2.36165803 2.36165803 10.75866283 4.98572175 18.63085511 5.7729411 7.87219229 1.04962617 14.43235271 2.62406372 14.43235272 3.67368987 0 0.78721934-3.93609557 6.03534791-8.65941163 11.28347534-7.87219229 9.18422414-8.65941163 9.44663097-14.95716523 6.29775361zM1113.9844126 230.17862381c-1.04962617-0.78721934-1.83684438-4.46090923-1.83684553-8.13459912 0-3.67368989-1.31203186-11.02106852-3.14887622-16.53160277l-2.88647054-10.23385031H943.68265516c-135.9265189 0-162.16715946 0.52481251-162.16715947 3.67368989 0 3.93609557 11.28347534 6.82256611 27.81507925 6.82256612 11.28347534 0 11.54588217 0 11.54588104 8.92181844 0 8.3970048-0.52481251 9.18422414-10.7586617 10.75866283-13.12032085 2.36165803-67.96325888-10.75866283-67.96326-16.0067914 0-2.62406372-3.41128305-3.14887737-13.12031974-1.83684437-8.65941163 1.04962617-13.12032085 0.52481251-13.12032084-1.31203186 0-2.62406372-9.18422414-3.41128305-87.11892651-7.34737976-18.63085511-0.78721934-33.58802034-2.62406372-33.58802033-3.9360967s-2.36165803-2.36165803-5.24812859-2.3616569-5.24812857 1.57443869-5.24812742 3.67368988c0 4.19850241-25.45342123 8.65941163-32.80080099 5.77293994-2.0992512-0.78721934-3.93609557-0.26240683-3.93609558 1.04962617 0 1.57443869-5.24812857 2.62406372-11.80828899 2.62406373s-11.80828785 0.78721934-11.80828787 2.0992512c0 1.04962617-7.87219229 3.41128305-17.58122895 5.24812855-9.97144349 1.83684438-25.97823374 5.77294108-35.94967835 8.65941163-23.61657685 7.08497294-35.68727155 5.24812857-35.68727153-5.24812855 0-6.82256611 1.04962617-7.60978546 14.16994587-10.49625601 10.75866283-2.36165803 13.90753906-4.19850241 12.85791404-7.08497294-1.04962617-3.14887737-23.61657685-3.67368989-154.03256036-3.67368989-83.70764345 0-156.9190309 0.78721934-162.16715946 1.57443868-9.18422414 1.57443869-9.70903666 2.0992512-11.28347534 14.43235272-1.57443869 10.75866283-2.62406372 12.85791403-7.08497295 12.85791289-5.24812857 0-5.24812857-1.04962617-3.93609558-17.84363464 2.0992512-22.30454499 8.92181731-44.87149567 13.90753907-46.97074687 1.83684438-0.78721934 3.67368989-2.88647054 3.6736899-4.98572176 0-2.36165803 3.14887737-3.67368989 9.18422412-3.67368989 7.34737978 0 9.18422414 1.04962617 9.18422413 5.24812743 0 5.24812857 1.83684438 5.24812857 469.70746768 5.24812858 415.65174784 0 469.70746766-0.52481251 469.70746766-3.93609556 0-2.62406372 2.88647054-3.93609557 9.18422413-3.93609672 7.60978546 0 9.18422414 1.04962617 9.18422416 5.24812856 0 3.14887737 1.57443869 8.1345991 3.67368988 11.28347534 4.72331491 7.08497294 9.44663097 32.53839415 9.44663097 49.59481061 0 12.07069469-0.26240683 12.59550721-7.34737977 12.59550719-4.19850241 0-8.3970048-0.78721934-9.18422414-1.83684436z" fill="#47C1FF" p-id="5592"></path><path d="M327.5524126 219.15755416c0-11.02106852 3.41128305-13.38272655 20.46769947-13.38272656 7.87219229 0 8.3970048 0.52481251 8.3970048 9.18422414 0 8.3970048-0.52481251 9.18422414-7.87219227 9.18422413-4.19850241 0-7.87219229 1.31203186-7.87219229 2.62406487 0 1.57443869-2.88647054 2.62406372-6.56015929 2.62406372-5.77294108 0-6.56016044-1.04962617-6.56016042-10.2338503z" fill="#47C1FF" p-id="5593"></path><path d="M341.45995166 340.65172034l0.78721932-6.82256613h30.1767373c37.52411591 0 39.09855459 0.26240683 32.53839415 3.14887737l-5.24812855 2.36165689 5.24812855 0.26240684c2.88647054 0.52481251 6.03534791 0.52481251 7.08497296 0.26240682 1.04962617 0 1.31203186 1.57443869 0.52481249 3.67368874-1.31203186 3.14887737-8.1345991 3.93609557-36.73689655 3.93609672h-35.42486471l1.04962504-6.82256727zM416.7705903 345.63744207c0-3.93609557 3.93609557-7.87219229 9.18422414-9.18422413 2.88647054-0.78721934 7.34737978-2.36165803 9.97144349-3.41128308 3.14887737-1.31203186 4.46090923-0.78721934 4.46090923 2.09925121 0 4.19850241-5.24812857 7.08497294-13.38272654 7.08497294-2.62406372 0-4.98572175 1.31203186-4.98572175 2.62406487 0 1.57443869-1.04962617 2.62406372-2.62406371 2.62406371-1.31203186 0-2.62406372-0.78721934-2.62406486-1.83684551zM853.9396638 334.87878039c-0.78721934-1.57443869 0.26240683-3.41128305 2.62406371-4.19850356 6.03534791-2.36165803 7.34737978-0.52481251 2.62406484 3.41128422-2.0992512 1.83684438-4.46090923 2.0992512-5.24812857 0.78721934zM448.25935943 328.31861997c0-2.0992512 27.29026675-9.70903666 35.16245788-9.7090378 12.07069469 0 7.34737978 4.46090923-6.56015927 6.29775473-7.60978546 1.04962617-17.05641643 2.62406372-20.99251315 3.41128307-4.19850241 0.78721934-7.60978546 0.78721934-7.60978546 0zM863.38629476 319.39680152c1.57443869-1.83684438 3.41128305-2.88647054 4.1985024-2.09925121 0.78721934 0.78721934 3.14887737-0.26240683 5.51053426-1.83684438 3.14887737-2.62406372 3.14887737-1.83684438-0.5248125 2.0992512-2.36165803 2.88647054-6.2977536 5.51053426-8.39700595 5.51053426-2.88647054 0-3.14887737-1.04962617-0.78721821-3.67368987zM351.16898945 317.55995713c0-2.36165803-1.83684438-3.14887737-4.98572175-2.36165802-2.62406372 0.52481251-6.56016044-0.78721934-8.92181844-2.88647052-2.0992512-2.36165803-5.24812857-4.19850241-6.82256612-4.19850241-1.57443869 0-2.88647054-2.36165803-2.88647054-5.24812745 0-4.19850241-1.83684438-5.24812857-7.8721923-5.24812856-4.19850241 0-7.87219229 1.31203186-7.87219228 2.62406371 0 1.57443869-2.36165803 2.62406372-4.98572174 2.62406485-2.88647054 0-5.77294108 1.04962617-6.56016043 2.0992512-1.57443869 2.62406372-18.8932608 2.62406372-21.25491882 0-1.04962617-1.04962617-3.41128305-1.04962617-5.51053425-0.26240681-2.36165803 0.78721934-3.67368989-0.52481251-3.67368989-4.1985024 0-3.14887737 1.57443869-5.51053426 3.9360967-5.51053426 1.83684438 0 4.72331491-1.57443869 5.77293996-3.41128307 2.0992512-3.41128305 25.97823374-20.20529379 28.60229859-20.2052938 0.78721934 0 5.24812857-2.88647054 9.97144349-6.56016044 4.72331491-3.67368989 11.80828785-6.56016044 15.48197774-6.56016041 7.87219229 0 9.44663097 4.19850241 2.62406485 6.03534791-4.46090923 1.04962617-4.46090923 1.31203186 0 1.57443869 3.93609557 0.26240683 4.46090923 3.14887737 4.46090809 22.56695068V310.73739102H390.52994974c43.55946382 0 49.59481059 0.52481251 48.28277873 3.93609559-1.04962617 2.62406372-3.41128305 3.41128305-6.56016044 2.6240637-2.88647054-1.04962617-4.98572175-0.52481251-4.98572173 1.04962616 0 1.83684438-12.85791403 2.88647054-38.04892842 2.88647055-30.9639555 0-38.04892843-0.78721934-38.04892843-3.67368989zM285.56738746 302.86519873c0-1.31203186 1.83684438-1.83684438 3.93609557-1.04962616 2.62406372 1.04962617 3.93609557 0 3.93609671-4.1985024 0-3.41128305 1.04962617-4.98572175 3.14887623-3.67368988 1.83684438 1.04962617 2.0992512 0.78721934 1.04962617-1.04962503-1.57443869-2.62406372 1.04962617-4.19850241 6.56016041-3.67368988 0.78721934 0 2.88647054-2.36165803 4.72331493-5.51053426 3.67368989-5.51053426 3.67368989-5.51053426-3.93609557-0.78721935-4.19850241 2.62406372-9.70903666 7.08497294-12.07069468 9.97144348-2.62406372 2.88647054-4.72331491 4.46090923-4.72331606 3.67368989 0-1.04962617-2.36165803-0.52481251-5.24812743 1.04962503-2.88647054 1.57443869-4.72331491 3.93609557-3.93609671 5.51053426 2.0992512 3.14887737 6.56016044 3.14887737 6.56016043-0.2624057z" fill="#03C3FF" p-id="5594"></path><path d="M476.07443869 310.99979671c-3.14887737-3.67368989-6.82256611-4.72331491-12.5955072-3.67368989-5.24812857 0.78721934-7.34737978 0.26240683-6.03534791-1.57443754 0.78721934-1.83684438 0.78721934-6.82256611-0.26240682-11.54588217l-2.0992512-8.3970048-1.57443755 11.54588104c-0.78721934 6.56016044-2.88647054 12.07069469-4.46090923 12.59550833-2.62406372 1.04962617-3.41128305-9.18422414-3.93609672-41.72261945l-0.78721933-42.77224334-51.69406178-0.78721935c-46.18352754-0.52481251-51.95646862-0.26240683-51.95646864 3.67368989 0 2.36165803-1.83684438 3.67368989-4.46090809 3.14887623-3.41128305-0.52481251-4.98572175-3.93609557-5.5105354-12.07069468l-0.7872182-11.02106852h58.77903473c51.69406178 0 61.14069277-0.78721934 76.097858-5.24812857 9.44663097-2.88647054 23.61657685-5.77294108 32.01358165-6.2977536 8.1345991-0.78721934 16.26919709-2.36165803 17.84363464-3.67368987 1.83684438-1.31203186 7.87219229-3.14887737 13.64513336-3.93609559 6.2977536-1.04962617 9.18422414-0.78721934 6.82256726 0.52481251-4.19850241 2.62406372 22.30454499 4.98572175 35.16245786 3.14887624l7.87219232-1.04962503-7.8721923-3.41128306c-6.82256611-2.88647054 0.78721934-3.41128305 51.16924928-3.14887737 32.53839415 0 56.15497102 0.78721934 52.48128113 1.31203187-9.18422414 1.57443869-11.80828785 4.98572175-5.51053425 6.82256724 3.14887737 0.78721934 5.51053426 0.26240683 5.51053425-1.04962617s2.36165803-2.36165803 5.51053541-2.36165802c2.88647054 0 4.46090923 1.31203186 3.67368874 2.62406486-0.78721934 1.57443869 0.26240683 2.62406372 2.36165803 2.62406371 2.36165803 0 4.19850241-1.83684438 4.1985024-3.93609556 0-2.62406372 2.62406372-3.93609557 7.87219228-3.93609671 9.18422414 0 10.496256 4.46090923 2.09925121 6.03534789-3.41128305 0.52481251 2.36165803 1.04962617 12.3331015 1.04962503 10.23385031 0 15.74438455-0.52481251 12.5955072-1.04962503-3.41128305-0.52481251-6.03534791-2.36165803-6.03534791-3.9360967 0-1.31203186 1.83684438-1.83684438 4.19850354-1.04962504 2.36165803 0.78721934 4.98572175 1.57443869 6.29775359 1.57443755s4.19850241 1.83684438 6.56015929 4.19850354c2.62406372 2.62406372 5.77294108 3.41128305 8.65941164 2.0992512 2.36165803-1.04962617 5.24812857-1.57443869 6.29775361-1.57443868 1.04962617 0.26240683 13.12032085 3.41128305 26.76545421 7.08497294 23.61657685 6.2977536 28.07748494 6.56016044 98.40240185 6.56016042h73.73619996v14.43235158c0 14.43235271 0 14.43235271-7.87219114 14.43235272s-7.87219229 0-3.67368989-6.56016044l4.1985024-6.56016042h-65.07678947l-65.33919518 0.26240681-34.37523853 41.46021263c-33.3256135 39.88577394-34.9000522 41.46021262-43.29705699 40.41058645-8.1345991-0.78721934-8.3970048-0.52481251-2.88647055 2.0992512 3.14887737 1.83684438 5.77294108 4.19850241 5.77294107 5.24812743 0 2.36165803-6.03534791 1.57443869-30.17673728-2.8864694-35.68727155-6.82256611-99.45202802-9.97144349-102.33849856-5.24812859-0.78721934 1.57443869-3.93609557 2.62406372-6.82256611 2.62406375-4.72331491 0-4.98572175-2.0992512-4.98572174-41.98502515v-41.98502516h-50.90684359c-44.08427635 0-51.16924928 0.52481251-52.48128113 4.19850356-0.78721934 2.36165803-1.57443869 22.82935751-1.57443757 45.92112072 0 44.08427635-1.31203186 48.02037191-11.54588215 36.73689656z m238.52742314-7.87219229c-8.3970048-3.41128305-25.97823374-5.51053426-23.35417001-2.88647054 1.31203186 1.31203186 6.56016044 2.62406372 11.54588214 3.41128419 15.21957205 1.57443869 17.31882326 1.57443869 11.80828787-0.52481365zM684.4251257 299.19150885c0-0.52481251-3.41128305-1.57443869-7.87219228-2.09925121-4.19850241-0.78721934-7.87219229-0.26240683-7.87219229 1.04962504 0 1.04962617 3.67368989 2.0992512 7.87219229 2.0992512 4.46090923 0 7.87219229-0.52481251 7.87219228-1.04962503z m-26.76545422-3.14887737c-2.36165803-2.36165803-54.31812665-2.88647054-57.99181541-0.52481252-1.57443869 1.04962617 11.02106852 2.0992512 28.07748495 2.09925121 17.31882326 0 30.70154979-0.78721934 29.91433046-1.57443869z m3.14887736-6.29775359c0-1.31203186-2.62406372-2.62406372-5.77294109-2.62406373-4.98572175 0-5.24812857 0.52481251-2.0992512 2.62406373 4.98572175 3.41128305 7.87219229 3.41128305 7.87219229 0z m-144.58593051-88.16855268c2.62406372-2.36165803-14.43235271-0.78721934-18.10604147 1.57443868-2.62406372 1.57443869-0.52481251 1.83684438 6.56016043 0.78721935 5.77294108-0.78721934 11.02106852-1.83684438 11.54588102-2.36165803z m23.61657686-4.72331492c-3.14887737-2.62406372-15.48197774-3.93609557-15.48197776-1.57443868 0 1.31203186 3.67368989 2.62406372 8.3970048 2.62406371 4.46090923 0 7.60978546-0.52481251 7.08497296-1.04962503z m99.45202799-8.65941164c-7.08497294-0.52481251-18.10604258-0.52481251-24.92860871 0-7.08497294 0.52481251-1.31203186 0.78721934 12.33310152 0.78721936s19.41807445-0.26240683 12.59550719-0.78721936zM877.55624065 306.27648179c-1.83684438-1.83684438 29.65192363-40.14817962 33.06320669-40.14818076 1.31203186 0 1.83684438-1.04962617 1.04962616-2.36165689-0.78721934-1.04962617 1.57443869-4.98572175 4.98572173-8.13459912l6.56015931-6.03534678v6.29775362c0 4.72331491 2.62406372 7.87219229 9.97144347 11.54588216 13.12032085 7.08497294 32.01358165 20.20529379 32.01358166 22.56695069 0 0.78721934 3.67368989 3.14887737 7.87219229 4.98572175 8.92181731 3.67368989 10.75866283 12.07069469 2.88647053 12.07069466-2.88647054 0-4.72331491-0.78721934-4.1985024-1.8368455 0.78721934-0.78721934-5.51053426-6.03534791-13.90753904-11.80828785-18.10604258-12.07069469-22.56695068-14.43235271-14.16994591-7.60978546 3.67368989 2.88647054 9.44663097 7.87219229 13.12031972 11.28347533 3.67368989 3.14887737 7.87219229 6.03534791 9.44663099 6.03534678 4.72331491 0.52481251-12.07069469 4.46090923-20.46769949 4.72331605-4.19850241 0-6.82256611-0.52481251-6.03534792-1.57443868 2.62406372-2.62406372-9.18422414-7.60978546-21.51732565-9.44663097-14.95716522-1.83684438-31.48876914 5.51053426-20.46769949 9.44663097 1.57443869 0.52481251-1.83684438 1.04962617-7.60978547 1.31203186-6.03534791 0-11.54588217-0.52481251-12.5955072-1.31203186z m49.59481059-32.27598849c-4.19850241-2.88647054-8.92181731-5.24812857-10.49625601-5.24812742-3.14887737 0 12.07069469 9.97144349 15.74438345 10.23384918 1.57443869 0.26240683-0.78721934-2.0992512-5.24812744-4.98572176z" fill="#03C3FF" p-id="5595"></path><path d="M1114.77163194 217.32070978c0-4.98572175-1.31203186-11.80828785-3.14887737-14.95716522-1.83684438-3.14887737-3.14887737-10.23385031-3.41128307-15.48197775-0.26240683-9.44663097 0-9.70903666 4.98572175-5.24812858 5.24812857 4.46090923 5.24812857 4.46090923 0.78721935-2.6240637-2.36165803-3.93609557-4.72331491-9.97144349-4.72331606-13.12032085-0.26240683-4.46090923-0.52481251-4.98572175-1.57443754-1.31203187-1.04962617 4.19850241-25.71582804 4.46090923-483.09019422 4.46090924-447.14051698 0-482.04056803 0.26240683-483.09019419 4.19850238-0.52481251 3.67368989-1.31203186 3.67368989-3.14887737 0.78721935-1.83684438-2.88647054-2.36165803-2.88647054-2.36165804 1.04962617 0 2.36165803-1.04962617 4.46090923-2.09925119 4.46090808-4.46090923 0-2.0992512 8.65941163 2.62406484 9.9714435 4.72331491 1.04962617 6.82256611 11.02106852 2.09925121 11.02106965-1.31203186 0-3.14887737 4.19850241-4.1985024 9.18422415-2.36165803 12.85791403-9.97144349 12.59550721-11.02106965-0.26240684-0.26240683-4.98572175 0.26240683-8.65941163 1.31203186-8.13459797 1.31203186 0.78721934 2.36165803-4.19850241 2.36165803-11.02106966 0.52481251-17.31882326 14.1699459-54.58053234 28.86470427-79.50914104 17.31882326-28.86470429 53.26850047-64.81438266 81.60839339-81.60839224 24.14138935-14.43235271 56.67978354-26.50304738 82.13320476-30.43914299 22.82935751-3.67368989 587.26553714-3.93609557 612.71895838-0.26240681 76.36026481 11.28347534 148.5220261 67.96325888 179.74838839 141.43705316 8.1345991 18.63085511 15.74438455 44.87149567 15.74438458 53.26850047 0 6.56016044-6.56016044 5.77294108-10.23384916-1.04962502-2.88647054-6.03534791-2.88647054-6.03534791-1.57443869 0.52481251 1.04962617 3.67368989 2.36165803 11.80828785 3.14887622 17.84363577 1.04962617 8.3970048 3.14887737 12.07069469 7.08497295 13.64513223 4.72331491 2.0992512 4.46090923 2.36165803-2.88646942 2.36165802-8.1345991 0.26240683-8.65941163-0.26240683-8.65941161-9.18422414z" fill="#03C3FF" p-id="5596"></path><path d="M1122.64382422 209.71092432c0-6.2977536 1.31203186-9.18422414 3.93609558-9.18422414s3.93609557 2.88647054 3.93609671 9.18422414-1.31203186 9.18422414-3.93609671 9.18422415-3.93609557-2.88647054-3.93609558-9.18422415zM572.37758934 175.07327895c6.82256611-0.52481251 17.58122894-0.52481251 23.61657684 0s0.52481251 0.78721934-12.59550718 0.78721819c-12.85791403 0-17.84363577-0.26240683-11.02106966-0.78721819zM654.77320093 175.07327895c4.72331491-0.52481251 13.12032085-0.52481251 18.36844829 0 5.51053426 0.52481251 1.83684438 1.04962617-8.3970048 1.04962504-9.97144349 0-14.43235271-0.52481251-9.97144349-1.04962504z" fill="#03C3FF" p-id="5597"></path><path d="M587.07234889 773.3598846l-25.45342237-25.45342123 6.03534791-7.87219227c17.84363577-24.14138935 27.02785991-56.41737783 28.07748494-99.71443372l0.78721933-31.22636232 36.73689772 1.31203188c25.71582804 1.04962617 34.37523968 0.52481251 28.86470428-1.31203188-4.19850241-1.31203186-21.77973135-2.62406372-38.57374208-2.88647053-27.29026675-0.26240683-30.9639555-0.78721934-30.96395549-4.72331606 0-3.14887737 3.14887737-4.98572175 12.07069469-6.29775361 12.33310151-1.83684438 47.75796622 0 63.50234966 3.14887738 7.08497294 1.31203186 8.3970048 0.78721934 8.39700594-3.14887738 0-3.67368989 3.14887737-1.57443869 11.54588102 8.13459913 6.56016044 7.34737978 11.54588217 15.21957205 11.28347535 18.10604146-0.26240683 2.88647054 2.62406372 6.56016044 7.34737977 9.44663097 4.72331491 2.62406372 7.60978546 6.2977536 7.08497293 8.92181731-0.52481251 2.62406372 1.83684438 5.24812857 6.03534792 6.82256724 3.67368989 1.57443869 6.03534791 3.93609557 5.24812742 5.24812743-0.78721934 1.57443869 0.52481251 3.41128305 3.14887738 4.46090924 5.24812857 1.83684438 12.85791403 11.54588217 11.80828786 14.69475839-0.26240683 1.04962617 1.57443869 2.88647054 3.9360967 3.6736899 12.33310151 4.72331491 11.02106852 8.65941163-10.75866283 29.12711111-11.80828785 11.02106852-38.57374208 36.73689657-59.8286609 57.46700287-37.26171021 36.47449089-38.83614777 37.52411591-49.59481059 37.52411706-10.496256 0-12.33310151-1.31203186-36.73689656-25.45342237zM817.98998543 581.54080152c-20.73010631-17.84363577-26.76545309-21.77973135-28.60229745-18.89326081-1.04962617 1.57443869-8.1345991-4.19850241-16.79401076-14.1699459-8.1345991-9.18422414-13.64513337-17.58122894-12.33310036-18.6308551 5.51053426-3.14887737 54.05571981 26.76545309 69.8001044 43.297057l7.60978545 7.87219229 31.488768-30.9639555c17.58122894-16.7940096 32.27598848-31.75117484 32.80080099-32.80080099 4.19850241-9.70903666-94.46630627-78.72192171-120.96935252-84.49486278-3.93609557-1.04962617-7.34737978-2.62406372-7.34737978-3.6736899 0-1.04962617 4.19850241-6.56016044 9.18422414-12.3331015l8.92181732-10.23384918 0.26240681 7.08497294c0 6.2977536 2.36165803 8.3970048 16.53160392 15.48197774 24.40379619 12.33310151 55.36775168 33.3256135 81.34598541 54.84293917 22.82935751 18.8932608 22.82935751 19.15566763 22.82935753 31.22636231 0 12.33310151-0.26240683 12.59550721-32.27598734 44.34668203-29.12711111 28.86470429-33.3256135 32.01358165-41.72261947 32.01358165-6.82256611 0-12.07069469-2.62406372-20.73010629-9.97144347zM445.63529572 557.39941215c0-8.92181731 31.75117484-28.60229859 40.67299215-25.1910144 2.36165803 0.78721934 3.93609557 4.72331491 3.93609671 9.70903664 0 7.60978546-0.52481251 8.1345991-7.08497296 6.82256727-5.24812857-1.04962617-10.23385031 0.78721934-18.10604259 6.29775359-13.12032085 8.92181731-19.41807445 9.70903666-19.41807331 2.3616569zM595.73175937 512.26551078c-1.83684438-1.83684438-3.14887737-6.03534791-3.14887624-9.44663098 0-8.3970048 6.82256611-6.82256611 15.21957092 4.19850242l6.56016044 8.39700479h-7.87219229c-4.19850241 0-8.92181731-1.31203186-10.75866283-3.14887623zM222.58985034 417.7992045c-34.11283284-32.53839415-36.47449089-35.42486471-36.73689773-44.60908886V363.21867215h-23.61657572c-19.15566763 0-23.61657685 0.78721934-23.61657685 3.93609558 0 2.0992512-1.04962617 3.93609557-2.62406486 3.93609672-1.31203186 0-2.62406372 1.83684438-2.6240637 3.93609557s-2.36165803 3.93609557-5.51053427 3.93609671c-5.24812857 0-5.24812857-0.52481251-3.93609671-85.80689577 0.52481251-47.49555939 2.36165803-92.6294619 3.67368989-100.50165306 1.31203186-8.1345991 2.62406372-11.28347534 2.88647056-7.34737978 0.26240683 6.56016044 0.78721934 7.08497294 7.08497293 4.72331492 3.93609557-1.57443869 74.26101248-2.62406372 182.89726578-2.36165689 97.09036999 0 174.76266667 0.78721934 172.92582115 1.57443868-2.36165803 0.78721934-1.31203186 2.62406372 3.41128419 4.98572174 7.08497294 3.67368989 19.68048014 1.04962617 19.68048015-4.19850353 0-1.31203186 4.98572175-2.62406372 11.28347534-2.6240637 7.60978546 0 9.97144349 0.78721934 7.08497293 2.6240637-2.62406372 1.57443869 0 2.62406372 9.18422416 3.41128419 10.75866283 0.78721934 10.23385031 1.04962617-2.88647055 0.78721934-9.97144349-0.26240683-17.05641643 0.78721934-19.15566764 2.88646942-1.57443869 1.83684438-6.2977536 3.41128305-9.97144348 3.41128419-3.93609557 0-10.496256 1.04962617-14.95716521 2.36165689-42.50983764 13.12032085-46.44593436 13.64513337-103.65053042 13.12032084-49.59481059-0.26240683-66.12641451 1.04962617-55.89256421 4.72331492 2.0992512 0.78721934 3.14887737 7.87219229 3.14887624 22.04213817 0 16.7940096-0.78721934 20.73010631-3.93609557 20.73010632-2.0992512 0-3.93609557 0.78721934-3.9360967 2.09925121 0 1.04962617-6.2977536 5.24812857-13.90753907 9.44663095-35.94967723 20.20529379-94.99111879 66.12641451-114.40919325 88.95577202l-6.29775361 7.60978545 33.85042604 33.85042603c18.63085511 18.63085511 34.9000522 33.85042603 36.21208404 33.85042718 1.04962617 0 8.92181731-6.2977536 17.05641644-13.9075402 19.68048014-18.10604258 46.97074688-38.57374208 51.69406293-38.57374208 2.62406372 0 3.67368989 3.67368989 3.67368875 13.12032085v13.12032086h-9.44662984c-7.87219229 0-13.12032085 3.14887737-32.27598848 19.68048014-32.53839415 27.81507925-30.9639555 28.07748494-76.36026368-14.95716524z m261.88159316-226.98154212c-2.62406372-0.52481251-7.34737978-0.52481251-10.49625599 0-3.41128305 0.52481251-1.31203186 1.04962617 4.46090807 1.04962617 5.77294108 0.26240683 8.3970048-0.26240683 6.03534792-1.04962617zM950.7676281 433.80599475C913.24351103 401.00519375 847.6419102 360.0697948 845.01784534 367.94198707c-0.52481251 1.57443869-2.36165803 3.14887737-4.1985024 3.14887737-1.83684438 0-5.51053426 2.36165803-8.13459797 5.24812743s-6.2977536 5.24812857-8.3970048 5.24812857c-1.83684438 0-3.41128305 2.36165803-3.41128419 5.24812744 0 6.03534791-4.72331491 8.65941163-13.12031973 7.34737976-4.98572175-0.78721934-3.14887737-3.67368989 14.69475841-25.19101439l20.20529379-24.14138937 22.56695069 12.07069466c37.78652274 20.46769949 86.33170717 55.36775168 104.96256228 75.57304436 3.67368989 3.67368989 7.60978546 6.82256611 9.18422414 6.82256726 1.57443869 0 18.36844829-15.48197774 36.99930339-34.37523969l34.11283284-34.11283286-23.87898253-22.82935751c-24.9286087-23.87898254-62.45272463-51.95646862-94.72871311-71.11213624-10.496256-6.2977536-19.15566763-12.33310151-19.15566762-13.64513336 0-1.04962617 6.56016044-9.70903666 14.43235271-19.15566763 24.14138935-28.33989177 25.71582804-27.55267243-51.69406179-28.33989177-36.47449089-0.52481251-67.43844637 0-68.48807253 0.78721935-1.31203186 1.04962617-14.6947584-1.83684438-30.17673728-5.7729411-15.48197774-4.19850241-35.68727155-8.92181731-45.13390137-10.75866283-15.21957205-2.88647054-16.26919709-3.41128305-9.18422416-4.98572172 6.2977536-1.31203186 6.56016044-1.83684438 2.09925121-2.09925122-10.496256-0.52481251-6.56016044-5.51053426 4.1985024-5.51053425 8.92181731 0 9.97144349 0.78721934 8.92181845 5.24812857-1.57443869 5.51053426 5.24812857 7.60978546 8.3970048 2.62406371 0.78721934-1.31203186 7.87219229-2.88647054 15.21957092-2.88647055 12.85791403-0.52481251 13.12032085-0.52481251 4.46090922-2.36165802-4.98572175-1.04962617 70.32491691-2.0992512 167.67769372-2.36165689l176.59951104-0.26240682-1.31203185-5.51053426c-1.04962617-4.46090923-0.78721934-4.98572175 1.57443869-2.62406371 3.67368989 3.67368989 9.44663097 24.9286087 9.70903664 35.16245787 0 5.24812857 1.57443869 7.87219229 5.24812859 8.92181846 4.98572175 1.31203186 5.24812857 3.67368989 5.24812857 88.95577089V399.95556873h-7.34737977c-6.82256611 0-7.34737978-1.04962617-11.02106967-17.58122894l-3.93609557-17.84363579-22.82935751-0.78721933-23.09176318-0.78721936v9.70903668c0 7.08497294-1.83684438 11.28347534-7.08497295 16.26919708-4.19850241 3.67368989-20.46769949 19.41807445-36.47449089 35.16245902-36.99930339 35.94967723-37.78652274 35.94967723-67.96325887 9.70903666zM445.63529572 394.44503446V347.47428759h-14.4323527c-14.1699459 0-16.26919709-1.31203186-12.33310152-6.56016043 3.41128305-4.98572175 53.26850047-22.30454499 63.50235081-22.30454499h7.34737975l0.52481252 44.60908998 0.26240569 44.60908886h-17.84363463l-1.57443869-18.89326192c-1.57443869-17.05641643-6.82256611-29.38951794-11.02106966-25.19101439-2.0992512 1.83684438-5.24812857 57.20459605-3.41128306 57.20459603 0.78721934 0 6.56016044-2.36165803 12.85791404-5.24812743 16.00679026-7.08497294 20.73010631-6.82256611 20.73010631 1.31203185 0 4.19850241-1.83684438 7.34737978-4.46090923 8.1345991-2.62406372 0.78721934-12.59550721 4.72331491-22.30454386 8.92181734l-17.84363577 7.34737977v-46.9707469zM627.2205285 400.48038123l-34.63764537-0.78721932 0.52481252-50.38202994 0.78721935-50.38202994 31.48876914-0.78721935c47.23315372-1.04962617 113.6219739 8.1345991 110.99790904 15.48197774-1.04962617 3.14887737-67.70085319 83.18283094-71.37454194 85.54448897-1.57443869 1.04962617-18.63085511 1.83684438-37.78652274 1.31203184z m28.33989178-16.26919707c0-1.31203186 2.0992512-2.62406372 4.72331491-2.62406372 3.93609557 0 4.46090923-1.57443869 3.67368989-9.18422414l-1.04962505-9.18422415h-54.58053233l-1.31203299 7.34737865c-3.93609557 17.84363577-5.77294108 16.26919709 22.56695182 16.26919708 15.48197774 0 25.97823374-1.04962617 25.97823375-2.62406372zM689.67325313 191.60488173c0-2.88647054 2.36165803-4.19850241 7.87219229-4.19850242 4.46090923 0 7.87219229 1.31203186 7.87219228 2.62406373 0 1.57443869-1.57443869 2.62406372-3.67368989 2.62406486-2.0992512 0-5.51053426 0.78721934-7.87219228 1.57443868-2.88647054 1.04962617-4.19850241 0.26240683-4.1985024-2.62406486zM592.05807062 185.56953495c16.00679026-0.52481251 42.77224448-0.52481251 59.04144041 0 16.00679026 0.26240683 2.88647054 0.78721934-29.65192361 0.78721934s-45.65871503-0.52481251-29.3895168-0.78721934z" fill="#02B6FF" p-id="5598"></path><path d="M585.23550337 777.03357449c-25.97823374-25.97823374-26.76545309-27.29026675-22.04213818-31.48876799 2.62406372-2.36165803 5.51053426-4.46090923 6.03534791-4.46090924 0.78721934 0 12.59550721 11.28347534 26.24064057 24.92860871s26.50304738 24.9286087 28.33989176 24.92860871c1.83684438 0 20.46769949-16.7940096 41.72261832-37.52411705C727.72218269 692.80111852 743.72897295 678.10635899 746.6154435 678.10635899c1.31203186 0 4.72331491 2.36165803 7.34737976 5.24812856 3.41128305 3.93609557 3.67368989 5.24812857 1.31203188 5.24812858-2.0992512 0-29.65192363 25.97823374-61.66550531 57.72940856l-57.99181653 57.72940971h-11.54588217c-11.54588217 0-12.59550721-0.78721934-38.83614778-27.02785991zM676.55293342 610.66791262c-17.84363577-5.24812857-28.33989177-6.56016044-53.00609482-6.82256612l-30.96395547-0.26240681v-50.64443563c0-46.97074688 0.26240683-50.64443677 4.72331492-50.64443677 2.62406372 0 8.3970048 3.93609557 12.85791402 8.65941164 7.87219229 8.3970048 90.5302107 107.06181347 89.21817772 106.53700097-0.26240683 0-10.496256-3.14887737-22.82935637-6.82256728z m-14.16994591-20.46769949c-2.0992512-2.0992512-4.98572175-3.93609557-6.29775473-3.93609556s-3.14887737-2.36165803-3.93609557-5.24812857c-0.78721934-2.88647054-4.46090923-6.2977536-8.13459911-7.87219229-4.19850241-1.57443869-6.82256611-4.46090923-6.82256611-7.87219228 0-2.88647054-2.0992512-6.2977536-4.46090924-7.08497295-2.62406372-1.04962617-9.18422414-6.2977536-14.69475839-11.80828786l-9.70903666-9.97144347-2.62406483 6.56016042c-1.57443869 3.93609557-2.62406372 16.26919709-2.62406373 27.55267242v20.73010631l27.02785991 1.04962504c14.6947584 0.26240683 28.86470429 1.04962617 31.48876914 1.31203187 4.19850241 0.52481251 4.46090923 0 0.78721932-3.41128308zM820.87645598 587.57614943c-7.60978546-8.1345991-10.496256-8.3970048-10.49625599-0.78721934 0 5.51053426 0 5.51053426-4.72331493 0.5248125-2.36165803-2.62406372-9.18422414-10.75866283-14.95716523-18.10604145-5.77294108-7.08497294-13.64513337-16.53160393-17.58122896-20.99251315-7.08497294-7.60978546-9.44663097-14.43235271-5.24812856-14.43235157 3.41128305 0 41.19780579 25.19101554 51.95646861 34.63764539 20.73010631 18.10604258 15.74438455 19.68048014 52.21887434-16.53160393 18.10604258-17.58122894 32.80080099-34.37523968 32.80080097-36.73689657 0-9.97144349-70.32491691-61.92791211-108.63625216-80.0339547-20.73010631-9.97144349-20.73010631-9.97144349-10.49625598-22.04213702 32.27598848-37.52411591 44.08427635-49.85721742 46.97074688-49.85721744 1.83684438 0 3.93609557-1.83684438 4.98572174-3.9360967 2.36165803-6.56016044 14.1699459-4.46090923 34.63764536 6.56016043 28.07748494 14.95716522 55.63015852 34.11283284 84.23245596 58.25422221l24.66620304 20.992512 29.38951679-28.86470428c16.26919709-15.74438455 32.53839415-31.48876914 36.73689773-35.16245788 8.65941163-8.1345991 8.92181731-11.80828785 1.31203184-19.68048127l-5.77294108-6.29775361 36.47449088 0.78721934 36.73689655 0.78721934 3.93609557 17.84363579c2.36165803 10.496256 5.24812857 17.58122894 7.08497296 17.58122893 2.62406372 0 3.41128305 18.10604258 3.4112842 86.85652081v86.59411399l-8.39700594-0.78721934c-7.34737978-0.52481251-8.92181731-2.0992512-10.23384919-8.65941162-0.78721934-4.19850241-2.36165803-10.496256-3.67368988-13.64513337l-1.83684436-6.03534677h-195.7551798l-31.22636232 28.86470428c-28.86470429 26.76545309-31.75117484 28.86470429-41.72261831 28.86470542-7.87219229 0-12.07069469-1.57443869-16.79401073-6.56016042zM445.63529572 573.14379671v-18.36844829l16.26919709-10.496256c25.71582804-16.7940096 28.33989177-14.6947584 28.33989177 21.77973136v20.20529379h-18.36844829v-14.43235271c0-15.48197774-1.04962617-16.53160393-9.97144348-10.23385032-4.72331491 3.14887737-5.77294108 6.56016044-5.7729411 17.05641643 0 11.02106852-0.78721934 12.85791403-5.24812855 12.85791402-4.72331491 0-5.24812857-1.83684438-5.24812744-18.36844828zM324.92834887 557.66181898v-17.84363579l-8.1345991-1.83684437c-4.46090923-0.78721934-46.44593436-1.57443869-93.15427442-1.57443867-73.73619997 0-85.01967531 0.52481251-85.01967531 3.93609557 0 2.62406372-2.62406372 3.93609557-7.87219229 3.9360967H122.87541548v-83.18283095c0-83.70764345 1.31203186-106.79940779 5.51053425-99.97684052 1.57443869 2.36165803 2.36165803 2.0992512 2.36165804-1.8368455 0-4.98572175 1.57443869-5.24812857 36.73689656-4.4609081l36.73689657 0.78721821-5.24812744 5.77294108c-3.14887737 3.14887737-4.98572175 7.60978546-4.72331605 9.97144347 0.52481251 2.36165803 17.05641643 19.94288697 36.9993034 39.09855461l36.21208405 34.37523969 13.12032086-11.28347536C308.13433814 410.45182475 328.0772251 394.70744015 330.43888314 394.70744015c1.31203186 0 2.36165803 2.36165803 2.36165688 5.24812858s1.83684438 5.24812857 3.93609672 5.24812855c3.41128305 0 3.93609557 11.28347534 3.93609557 85.28208215v85.28208099h-15.74438344v-18.10604144zM447.20973327 432.4939629c-1.57443869-4.19850241 3.14887737-73.99860678 5.24812856-77.67229555 1.83684438-2.88647054 16.7940096 0 21.51732568 4.1985024 1.83684438 1.83684438 4.19850241 11.80828785 4.98572173 22.04213818 1.04962617 12.59550721 2.62406372 18.8932608 4.98572173 18.8932608 1.83684438 0 3.93609557-1.57443869 4.72331493-3.14887738 0.78721934-1.83684438 1.31203186 3.14887737 1.04962616 11.54588219-0.26240683 9.97144349-1.31203186 14.43235271-3.41128419 13.64513334-1.57443869-0.78721934-10.75866283 2.36165803-20.20529266 6.56016045-14.1699459 6.2977536-17.84363577 7.08497294-18.89326194 3.93609557zM656.87245214 396.80669135c-4.19850241-1.04962617-18.36844829-2.0992512-31.488768-2.0992512-12.85791403 0.26240683-25.19101554 0.26240683-27.29026674 0.26240683-2.88647054-0.26240683-3.14887737-3.41128305-1.8368444-15.21957206 3.41128305-28.33989177-0.78721934-25.71582804 42.50983766-24.92860757 33.85042603 0.78721934 37.78652274 1.31203186 37.26170911 5.24812745-0.52481251 2.88647054 1.04962617 4.46090923 5.24812856 4.7233149 7.60978546 0.52481251 11.02106852 3.67368989 3.93609557 3.67368989-6.03534791 0-10.23385031 6.82256611-5.24812743 8.65941163 4.72331491 1.57443869-5.77294108 12.33310151-12.33310152 12.33310152-4.46090923 0-4.72331491 0.52481251-1.57443869 2.6240637 6.2977536 3.93609557-0.26240683 7.60978546-9.18422412 4.72331491z" fill="#01A9FF" p-id="5599"></path><path d="M124.44985415 802.22459001c-2.88647054-18.8932608-2.0992512-27.02785991 3.41128306-27.0278599 3.93609557 0 4.98572175 2.62406372 6.56016043 13.90753904 2.36165803 20.73010631 2.0992512 22.82935751-3.41128305 22.82935753-3.67368989 0-5.24812857-2.62406372-6.56016044-9.70903667zM1113.72200577 789.62908169c1.57443869-18.36844829 1.04962617-23.35417004-2.36165688-27.02785877-2.0992512-2.36165803-4.46090923-6.82256611-4.98572175-9.70903781-0.78721934-4.98572175-3.14887737-5.24812857-72.42416812-6.03534677-39.09855459-0.26240683-71.37454307 0.26240683-71.37454306 1.57443753 0 1.04962617 1.04962617 3.14887737 2.62406371 4.72331606 1.31203186 1.31203186 3.14887737 9.18422414 4.1985024 17.58122896l1.83684551 14.95716522h-76.6226705c-63.23994398 0-76.36026481-0.52481251-76.36026482-3.67368988 0-1.83684438-2.36165803-4.19850241-5.24812743-4.98572174-3.14887737-0.78721934-5.24812857-3.67368989-5.24812858-6.82256611 0-3.14887737-1.57443869-5.51053426-3.41128306-5.51053427-4.98572175 0-12.33310151-8.65941163-12.3331015-13.90754021 0-3.93609557-4.72331491-4.46090923-45.65871502-4.46090921h-45.3963082l-33.06320667 31.48876915c-31.22636231 29.65192363-33.85042603 31.48876914-43.82187067 31.48876913-9.97144349 0-12.59550721-1.57443869-34.63764536-22.82935752-24.14138935-23.61657685-28.86470429-25.71582804-35.68727155-16.26919707-2.36165803 3.41128305-6.56016044 4.98572175-13.90753903 4.98572173-6.82256611 0-10.23385031 1.04962617-10.23385033 3.67368988 0 4.46090923-11.54588217 6.82256611-34.37523855 6.82256612-15.48197774 0-18.36844829-0.78721934-21.77973246-5.77294108-2.36165803-3.14887737-4.19850241-9.70903666-4.19850239-14.43235271 0-4.72331491-1.04962617-8.65941163-2.36165691-8.65941048s-2.88647054-2.36165803-3.67368989-5.24812859c-2.36165803-8.92181731-17.05641643-7.08497294-29.1271111 3.93609558-5.77294108 4.98572175-12.59550721 9.18422414-15.21957206 9.18422528s-4.72331491 1.31203186-4.7233149 2.62406372c0 1.57443869-1.83684438 2.62406372-3.93609672 2.6240637s-3.93609557 1.31203186-3.93609558 2.62406374c0 1.57443869-2.88647054 2.62406372-6.56016042 2.62406484s-6.56016044 1.04962617-6.5601593 2.36165688c0 4.19850241-27.02785991 8.3970048-47.49556052 7.60978661l-19.41807332-0.78721935-0.78721934-17.58122894-0.78721934-17.58123009-11.02106964-1.57443752c-6.2977536-1.04962617-51.69406178-1.31203186-101.02646558-0.78721936l-89.74299136 0.78721936v-107.58662715c0-64.81438266 1.04962617-109.16106466 2.62406371-111.52272271 2.0992512-3.14887737 2.62406372-2.62406372 2.88647054 2.62406374 0.26240683 4.72331491 0.78721934 5.24812857 1.57443869 1.8368455 1.04962617-4.46090923 7.08497294-4.72331491 101.28887239-3.9360967l100.23924736 0.78721933 0.78721934 19.15566763c0.52481251 14.43235271 1.57443869 18.8932608 4.46090923 18.89326193 3.41128305 0 3.93609557 14.6947584 3.93609557 103.9129361v104.17534408l19.41807445-1.31203187c24.66620189-1.57443869 43.55946382-10.496256 60.35347342-28.33989289 22.82935751-24.40379619 23.35417004-27.55267243 25.45342124-111.78512838 0.78721934-40.41058645 2.36165803-74.78582614 3.14887736-76.36026483 3.14887737-4.98572175 25.45342123-16.7940096 28.07748494-15.21957091 1.57443869 0.78721934 2.62406372 9.18422414 2.62406485 18.63085397 0 12.59550721 0.78721934 16.7940096 3.67368874 16.79401072 2.0992512 0 4.46090923-1.57443869 4.98572177-3.14887736 0.78721934-1.83684438 0.78721934 42.24743197 0 98.402403l-1.57443757 101.55127921h15.48197775c18.63085511 0 37.26171021-7.87219229 53.53090616-22.56695068l10.75866284-9.70903779 26.76545421 26.50304739c14.6947584 14.6947584 28.60229859 26.76545309 30.70154866 26.76545308 2.0992512 0 29.91433045-25.97823374 61.92791211-57.9918154 39.36096142-39.09855459 59.82866091-57.72940971 62.71513145-56.94219035 2.62406372 0.26240683 22.04213817 21.51732565 43.03465017 46.70834006l38.57374208 45.92112182 64.81438265 0.78721934c35.68727155 0.26240683 64.81438266 0 64.81438264-1.04962615 0-0.78721934-36.99930339-45.65871503-81.87079908-99.71443485-45.13390137-54.05571981-82.92042411-101.0264667-83.97005026-104.17534292-0.78721934-3.41128305-1.83684438-4.19850241-2.0992512-1.83684439-0.26240683 2.36165803-1.57443869 1.31203186-3.41128307-2.88647054-1.83684438-3.67368989-7.34737978-10.23385031-12.33310151-14.69475954-24.40379619-21.77973135 11.54588217-3.41128305 43.29705701 22.04213818 9.44663097 7.60978546 18.10604258 13.90753906 19.15566762 13.9075402 1.04962617 0 15.74438455-12.85791403 32.800801-28.60229861 16.7940096-15.74438455 33.3256135-29.12711111 36.73689657-29.65192362 3.14887737-0.52481251 50.64443677-0.52481251 105.48737593 0l99.71443485 0.78721934 3.41128304 6.82256611c1.57443869 3.93609557 3.14887737 9.97144349 3.14887624 13.38272655 0 3.93609557 1.83684438 6.82256611 5.24812857 7.60978545 5.24812857 1.31203186 5.24812857 3.67368989 5.24812857 116.24603876 0 62.97753714-0.78721934 120.18213433-1.57443869 127.00470043-1.57443869 11.28347534-2.36165803 12.07069469-9.44663097 12.0706947h-7.60978545l1.83684437-22.30454499z" fill="#009CFF" p-id="5600"></path><path d="M671.30480483 605.41978519c-7.87219229-2.88647054-22.56695068-4.19850241-43.8218695-4.46090923l-32.27598847-0.26240683v-29.38951679c0-33.85042603 2.0992512-41.46021262 11.54588216-43.297057 5.51053426-1.04962617 9.18422414 0.78721934 18.10604145 9.44662983 6.03534791 5.77294108 13.38272655 12.07069469 16.26919709 13.64513337 2.88647054 1.31203186 4.98572175 4.72331491 4.46090923 7.08497294-0.52481251 2.62406372 1.31203186 5.24812857 3.93609671 6.29775359 7.08497294 2.36165803 13.90753906 8.92181731 12.33310038 11.54588217-0.78721934 1.31203186 0.26240683 2.36165803 2.0992512 2.36165802 3.67368989 0 11.54588217 10.23385031 10.49625713 13.90753908-0.26240683 1.04962617 0.78721934 1.83684438 2.36165689 1.83684551 3.67368989 0 12.85791403 11.28347534 11.02106966 13.64513223-1.31203186 2.62406372-2.0992512 2.36165803-16.53160393-2.36165689z" fill="#009CFF" p-id="5601"></path><path d="M320.99225217 1000.86623924c-74.52341931-11.28347534-144.58592939-64.81438266-176.59951104-134.08967338-7.87219229-17.31882326-16.00679026-43.82186951-17.84363578-57.46700289-3.14887737-25.97823374-3.93609557-69.80010439-1.31203185-76.09785798l2.62406371-6.56016044v6.56016044l0.26240682 6.56016041h203.36496414l1.31203185 18.36844829 1.312033 18.36844828 11.28347534 0.78721934c14.1699459 1.04962617 34.11283284-3.14887737 47.23315257-9.70903779 23.87898254-11.80828785 32.80080099-17.58122894 34.11283286-21.77973135 0.52481251-2.62406372 2.0992512-4.19850241 3.14887737-3.41128304 1.04962617 0.78721934 3.41128305-0.52481251 5.24812743-2.62406373 2.62406372-3.14887737 2.36165803-3.93609557-1.57443754-3.93609671-4.72331491-0.26240683-4.72331491-0.26240683-0.26240684-2.88647054 3.41128305-2.0992512 5.51053426-1.57443869 8.65941164 1.31203186 2.36165803 2.62406372 8.65941163 4.19850241 16.00679025 4.19850241 9.44663097 0 12.07069469 1.04962617 13.12032085 5.24812855 0.78721934 2.88647054 2.36165803 5.24812857 3.67368989 5.24812857 1.31203186 0 2.36165803 3.93609557 2.36165688 8.65941163 0 22.56695068 16.53160393 26.24064057 55.105346 11.80828786 4.98572175-1.83684438 13.38272655-6.56016044 18.63085511-10.49625599 5.24812857-4.19850241 11.54588217-7.34737978 14.43235156-7.34737976 2.62406372 0 16.26919709 11.28347534 30.43914298 24.92860869 13.90753906 13.64513337 26.50304738 24.9286087 28.07748608 24.92860873 1.83684438 0 17.84363577-14.1699459 36.21208405-31.48876915l33.06320668-31.48876913H736.90640682c30.70154979 0 44.34668317-0.78721934 45.13390138-2.88646941 0.78721934-2.36165803 2.36165803-2.36165803 6.03534792-0.26240684 2.88647054 1.57443869 7.34737978 3.41128305 9.70903666 4.1985024 2.62406372 0.78721934 3.93609557 2.88647054 3.14887736 4.98572175-1.57443869 4.19850241 8.1345991 13.38272655 11.80828785 11.02106851 2.88647054-1.57443869 3.93609557 1.83684438 3.14887623 8.65941163-0.26240683 1.83684438 1.04962617 3.67368989 2.88647055 4.19850241 13.38272655 3.93609557 13.90753906 4.46090923 9.97144349 7.08497293-2.62406372 1.57443869 20.73010631 2.36165803 65.07678947 2.09925121 67.43844637 0 68.75047822-0.26240683 66.1264145-5.24812743-1.57443869-2.88647054-2.36165803-6.03534791-1.57443867-7.08497295 1.83684438-2.88647054-13.90753906-22.04213817-16.53160392-20.2052938-2.88647054 1.57443869-12.07069469-8.65941163-9.70903666-11.02106851 1.04962617-1.04962617 2.88647054-0.52481251 3.93609557 1.57443869 1.83684438 2.62406372 20.73010631 3.41128305 89.74299136 3.67368876l87.64374018 0.52481363 0.78721819 5.77294111c0.52481251 3.14887737 2.62406372 7.08497294 4.72331606 8.65941047 2.0992512 1.83684438 3.67368989 5.51053426 3.67368988 8.13459913 0 2.88647054 1.83684438 4.98572175 3.93609558 4.98572172s3.93609557 2.36165803 3.93609671 5.24812744-1.83684438 5.24812857-3.93609671 5.24812857-3.93609557 1.83684438-3.93609558 3.9360967 1.31203186 3.93609557 2.62406372 3.93609557c4.72331491 0 2.88647054 15.21957205-1.83684438 16.53160392-4.46090923 1.04962617-4.46090923 1.31203186 0 1.57443869 5.51053426 0.26240683 5.24812857 0 0.52481251 20.73010517-9.18422414 38.83614777-32.27598848 79.24673423-62.71513145 109.68587832-29.91433045 30.17673728-62.45272463 48.80759125-107.8490328 62.45272463-18.10604258 5.24812857-22.30454499 5.51053426-318.82378354 5.77294108-165.3160357 0.26240683-306.22827633-0.52481251-313.57565611-1.57443868z" fill="#008AFF" p-id="5602"></path></svg>