<?xml version="1.0" standalone="no"?><!DOCTYPE svg PUBLIC "-//W3C//DTD SVG 1.1//EN" "http://www.w3.org/Graphics/SVG/1.1/DTD/svg11.dtd"><svg t="1782221560896" class="icon" viewBox="0 0 1024 1024" version="1.1" xmlns="http://www.w3.org/2000/svg" p-id="33466" xmlns:xlink="http://www.w3.org/1999/xlink" width="200" height="200"><path d="M279.585999 1003.568l7.662-7.662c28.094-30.648 56.188-58.742 81.728-91.944001 68.958-84.282001 125.146001-173.672001 160.902001-275.832001 12.77-40.864 22.986-84.282001 22.986-127.700001 0-45.972-7.662-89.390001-22.986-132.808001-22.986-71.512-56.188-137.916001-94.498-204.320001-15.324-25.54-30.648-51.08-45.972001-74.066001-17.878-25.54-35.756-56.188-58.742-79.174-15.324-15.324-22.986-12.77-33.202 5.108-2.554 5.108-2.554 7.662-5.108 12.77-20.432 74.066-58.742 140.470001-112.376001 196.658001-7.662 15.324-25.54 22.986-28.094 38.31-2.554 15.324 5.108 30.648 7.662 48.526001 20.432 127.700001 43.418 255.400002 63.85 385.654002 17.878 102.160001 33.202 204.320001 51.080001 306.480002 0 2.554 0 5.108 5.108 5.108-2.554-2.554 0-5.108 0-5.108z" fill="#DA3432" p-id="33467"></path><path d="M458.366 140.315995c40.864 58.742 74.066 122.592001 97.052 191.550001 15.324 40.864 22.986 81.728 28.094 125.146001 7.662 66.404-2.554 132.808001-25.54 196.658001-25.54 74.066-66.404 140.470001-117.484 201.766001-43.418 51.08-91.944001 97.052001-145.578001 137.916001l-2.554 2.554v2.554l-7.662 7.662c15.324-5.108 30.648-15.324 43.418-20.432 7.662-2.554 15.324-10.216 22.986-10.216 28.094-17.878 56.188-33.202 84.282001-51.080001 58.742-38.31 114.930001-84.282001 160.902001-137.916 40.864-45.972 74.066-97.052001 89.39-158.348001 15.324-56.188 15.324-112.376001 7.662-168.564001-12.77-89.390001-43.418-173.672001-86.836-252.846002-2.554-2.554-2.554-5.108-2.554-7.662-5.108-5.108-7.662-10.216-10.216001-15.324-25.54-40.864-48.526-84.282001-81.728-120.038001-15.324-20.432-28.094-17.878-43.418 0-12.77 15.324-25.54 33.202-38.31 48.526 12.77 2.554 20.432 15.324 28.094 28.094001z" fill="#FDD100" p-id="33468"></path><path d="M284.693999 1001.014l7.662-7.662v-2.554c-2.554 0-2.554 2.554-5.108 2.554l-7.662 7.662c2.554 2.554 5.108 2.554 5.108 0z" fill="#FDD100" p-id="33469"></path><path d="M698.442001 329.311996c7.662 20.432 15.324 40.864 20.432 61.296 7.662 28.094 12.77 56.188 15.324 86.836001 2.554 25.54 2.554 51.08 0 76.62-5.108 51.08-15.324 99.606001-38.31 145.578001-17.878 30.648-38.31 58.742-61.296 86.836001-28.094 30.648-58.742 56.188-89.390001 84.282-15.324 15.324-35.756 25.54-53.634 35.756-28.094 17.878-56.188 33.202-86.836001 48.526001-15.324 7.662-33.202 15.324-48.526 25.54-12.77 5.108-22.986 12.77-40.864 17.878 15.324 5.108 28.094-2.554 40.864-5.108 10.216-2.554 20.432-5.108 28.094-7.662 30.648-7.662 58.742-17.878 89.390001-28.094 12.77-5.108 25.54-7.662 35.756-12.77 15.324-7.662 30.648-10.216 45.972-20.432001 15.324-10.216 30.648-15.324 45.972001-22.986 5.108-5.108 7.662-5.108 12.77-5.108 33.202-17.878 63.85-38.31 94.498-61.296 48.526-38.31 84.282001-84.282001 107.268001-143.024001 12.77-33.202 17.878-63.85 20.432-99.606001 2.554-53.634 0-104.714001-12.77-158.348001-10.216-53.634-28.094-104.714001-48.526-153.24v-2.554001c-15.324-30.648-28.094-61.296-43.418001-91.944-7.662-17.878-17.878-33.202-30.648-48.526-12.77-12.77-20.432-12.77-33.202-2.554-15.324 12.77-28.094 28.094-40.864 43.418 10.216 28.094 28.094 51.08 40.864 76.62 7.662 25.54 17.878 51.08 30.648 74.066001z" fill="#8DC400" p-id="33470"></path><path d="M879.776002 293.555996c-7.662-20.432-17.878-40.864-30.648-58.742001-10.216-15.324-20.432-15.324-33.202-2.554-7.662 7.662-15.324 17.878-22.986 25.54 10.216 12.77 12.77 25.54 17.878 40.864001 12.77 38.31 25.54 74.066 35.756 114.93 7.662 33.202 15.324 66.404 17.878 102.160001 2.554 25.54 2.554 51.08 2.554 76.62 0 30.648-7.662 58.742-15.324 89.390001-7.662 30.648-20.432 56.188-35.756 81.728-17.878 28.094-38.31 53.634-61.296001 74.066001-28.094 22.986-56.188 45.972-86.836 61.296-51.08 28.094-104.714001 48.526-158.348001 66.404001-51.08 15.324-104.714001 25.54-155.794001 35.756-17.878 2.554-35.756 7.662-53.634 7.662 2.554 2.554 7.662 0 12.77 2.554 86.836001 2.554 171.118001-2.554 257.954001-15.324 56.188-7.662 112.376001-15.324 166.010001-38.31 89.390001-35.756 158.348001-94.498001 194.104002-186.442002 30.648-76.62 30.648-155.794001 20.432-234.968001-15.324-84.282001-40.864-166.010001-71.512001-242.630001z" fill="#0097DB" p-id="33471"></path><path d="M430.272 150.531995c35.756 58.742 66.404 117.484001 89.39 178.780001 17.878 45.972 30.648 94.498001 33.202 145.578001 5.108 61.296-7.662 120.038001-28.094 176.226001-35.756 94.498001-89.390001 176.226001-153.240001 255.400001-22.986 28.094-45.972 53.634-71.512 79.174001 20.432-15.324 38.31-30.648 56.188-48.526001 58.742-53.634 109.822001-114.930001 150.686001-183.888001 35.756-61.296 61.296-127.700001 68.958-201.766001 7.662-66.404 0-130.254001-17.878-194.104001-17.878-58.742-43.418-112.376001-74.066-166.010001-15.324-25.54-33.202-53.634-51.08-76.620001-2.554-2.554-5.108-5.108-5.108001-7.662-7.662 5.108-12.77 12.77-17.878 17.878001 12.77 7.662 15.324 17.878 20.432001 25.54z" fill="#F9B600" p-id="33472"></path><path d="M529.878 367.621996c12.77 43.418 22.986 86.836001 22.986 132.808001 0 43.418-7.662 86.836001-22.986 127.700001-33.202 104.714001-91.944001 194.104001-160.902001 275.832001-25.54 30.648-53.634 61.296-81.728 91.944001 5.108-2.554 10.216-7.662 15.324-10.216 22.986-25.54 48.526-51.08 71.512-79.174001 63.85-76.62 117.484001-160.902001 153.240001-255.400001 20.432-56.188 33.202-114.930001 28.094-176.226001-2.554-51.08-15.324-99.606001-33.202-145.578001-22.986-63.85-53.634-122.592001-89.39-178.780001-5.108-7.662-7.662-17.878-17.878001-22.986l22.986001 38.31c35.756 63.85 68.958 130.254001 91.944 201.766001z" fill="#F9B600" p-id="33473"></path><path d="M489.014 191.395995c30.648 53.634 56.188 107.268001 74.066 166.010001 20.432 63.85 28.094 127.700001 17.878 194.104001-10.216 71.512-33.202 137.916001-68.958 201.766001-40.864 68.958-91.944001 130.254001-150.686001 183.888001-17.878 17.878-38.31 33.202-56.188 48.526001-2.554 2.554-5.108 7.662-10.216 10.216l2.554-2.554c53.634-40.864 102.160001-86.836001 145.578001-137.916001 51.08-61.296 91.944001-127.700001 117.484-201.766001 22.986-63.85 30.648-127.700001 25.54-196.658001-5.108-43.418-12.77-84.282001-28.094-125.146001-22.986-68.958-56.188-132.808001-97.052-191.550001-7.662-10.216-15.324-25.54-28.094-33.202001 0 2.554 2.554 5.108 5.108 7.662 17.878 22.986 33.202 48.526 51.08 76.620001z" fill="#F9B600" p-id="33474"></path><path d="M292.355999 993.352c2.554-2.554 5.108-7.662 10.216-10.216-5.108 2.554-10.216 7.662-15.324 10.216 2.554 2.554 5.108 2.554 5.108 0z" fill="#F9B600" p-id="33475"></path><path d="M458.366 975.474c43.418-10.216 86.836001-22.986 127.7-40.864001 63.85-25.54 122.592001-58.742 171.118001-107.268 45.972-45.972 76.62-99.606001 91.944001-163.456001 15.324-68.958 12.77-135.362001 0-204.320001-7.662-45.972-22.986-86.836001-35.756-130.254001-7.662-22.986-17.878-45.972-22.986-68.958001-5.108 5.108-12.77 10.216-17.878 17.878 5.108 2.554 5.108 7.662 7.662 10.216001 25.54 58.742 43.418 120.038001 51.08 183.888001 10.216 61.296 10.216 120.038001-5.108 181.334001-12.77 58.742-40.864 112.376001-86.836001 155.794001-35.756 33.202-74.066 61.296-114.93 86.836-5.108 2.554-7.662 5.108-12.77 5.108s-7.662 2.554-12.77 5.108c-22.986 12.77-45.972 22.986-68.958001 33.202-53.634 22.986-112.376001 40.864-171.118001 56.188001-7.662 2.554-17.878 5.108-25.54 5.108h-2.554c-7.662 2.554-17.878 2.554-25.54 5.108-5.108 0-12.77 2.554-17.878 5.108h7.662c15.324-7.662 30.648-7.662 45.972-10.216 40.864-10.216 79.174-17.878 117.484001-25.54z" fill="#0088B5" p-id="33476"></path><path d="M772.508002 280.785996c20.432 48.526 35.756 102.160001 48.526 153.24 10.216 51.08 15.324 104.714001 12.77 158.348001-2.554 33.202-10.216 66.404-20.432 99.606001-20.432 58.742-58.742 104.714001-107.268001 143.024001-30.648 22.986-58.742 45.972-94.498 61.296-2.554 2.554-7.662 5.108-10.216 7.662 2.554-2.554 7.662-2.554 12.77-5.108 5.108 0 7.662-2.554 12.77-5.108 40.864-22.986 79.174-53.634 114.93-86.836 43.418-43.418 71.512-94.498001 86.836001-155.794001 12.77-58.742 12.77-120.038001 5.108-181.334001-10.216-63.85-28.094-125.146001-51.08-183.888001-2.554-5.108-2.554-7.662-7.662-10.216001-2.554 2.554-2.554 2.554-2.554 5.108001zM333.219999 998.46h0c-2.554 0 0 0 0 0z" fill="#0088B5" p-id="33477"></path><path d="M504.338 965.258c56.188-15.324 109.822001-38.31 158.348001-66.404001 30.648-17.878 58.742-38.31 86.836-61.296 25.54-20.432 45.972-45.972 61.296001-74.066001 15.324-25.54 28.094-53.634 35.756-81.728 7.662-28.094 15.324-58.742 15.324-89.390001 0-25.54 0-51.08-2.554-76.62-2.554-35.756-10.216-68.958-17.878-102.160001-10.216-38.31-22.986-76.62-35.756-114.93-5.108-12.77-7.662-28.094-17.878-40.864001l22.986 68.958001c15.324 43.418 28.094 86.836001 35.756 130.254001 12.77 68.958 15.324 135.362001 0 204.320001-15.324 63.85-45.972 117.484001-91.944001 163.456001-48.526 48.526-107.268001 81.728-171.118001 107.268-40.864 17.878-84.282001 30.648-127.7 40.864001-38.31 10.216-79.174 17.878-117.484001 22.986-15.324 2.554-30.648 5.108-45.972 10.216 17.878 0 35.756-5.108 53.634-7.662 56.188-7.662 107.268001-17.878 158.348001-33.202z" fill="#0088B5" p-id="33478"></path><path d="M632.038001 237.367995c20.432 40.864 35.756 84.282001 51.08 127.700001 17.878 63.85 25.54 127.700001 20.432 194.104001-5.108 66.404-28.094 127.700001-68.958 181.334001-48.526 63.85-104.714001 114.930001-171.118001 160.902001-35.756 25.54-71.512 45.972-109.822001 68.958001h-2.554v2.554c33.202-15.324 68.958-33.202 102.160001-53.634001 35.756-22.986 71.512-43.418 104.714-71.512 28.094-22.986 56.188-48.526 79.174001-76.620001 38.31-43.418 66.404-91.944001 79.174-148.132 10.216-38.31 15.324-76.62 12.77-117.484001 0-30.648-5.108-61.296-10.216-91.944001-7.662-38.31-22.986-76.62-38.31-112.376-15.324-38.31-35.756-74.066-53.634-109.822001-2.554-5.108-7.662-10.216-2.554-15.324-7.662 5.108-10.216 12.77-17.878 17.878 12.77 12.77 17.878 28.094 25.54 43.418z" fill="#80B435" p-id="33479"></path><path d="M609.052001 201.611995c43.418 79.174 76.62 163.456001 86.836 252.846002 7.662 56.188 7.662 112.376001-7.662 168.564001-15.324 61.296-48.526 112.376001-89.39 158.348001-48.526 53.634-102.160001 97.052001-160.902001 137.916-28.094 17.878-56.188 35.756-84.282001 51.080001v2.554h2.554c38.31-20.432 74.066-43.418 109.822001-68.958001 63.85-45.972 122.592001-97.052001 171.118001-160.902001 40.864-53.634 63.85-114.930001 68.958-181.334001 5.108-66.404-2.554-130.254001-20.432-194.104001-12.77-43.418-30.648-86.836001-51.08-127.700001-7.662-15.324-12.77-33.202-25.54-45.972-2.554 2.554 0 5.108 0 7.662z" fill="#80B435" p-id="33480"></path><path d="M626.930001 193.949995c17.878 35.756 38.31 71.512 53.634 109.822001 15.324 38.31 30.648 74.066 38.31 112.376 5.108 30.648 10.216 61.296 10.216 91.944001 0 40.864-5.108 79.174-12.77 117.484001-12.77 56.188-43.418 104.714001-79.174 148.132-22.986 28.094-51.08 53.634-79.174001 76.620001-33.202 25.54-68.958 48.526-104.714 71.512-33.202 20.432-66.404 35.756-102.160001 53.634001l2.554 2.554c15.324-7.662 33.202-15.324 48.526-25.54 30.648-15.324 58.742-30.648 86.836001-48.526001 17.878-12.77 38.31-22.986 53.634-35.756 30.648-28.094 63.85-51.08 89.390001-84.282 22.986-28.094 43.418-56.188 61.296-86.836001 22.986-45.972 33.202-94.498001 38.31-145.578001 2.554-25.54 2.554-51.08 0-76.62-2.554-28.094-7.662-58.742-15.324-86.836001-5.108-20.432-10.216-40.864-20.432-61.296-10.216-25.54-20.432-48.526-33.202-74.066001s-30.648-51.08-40.864-76.62c0 7.662 5.108 12.77 5.108 17.878z" fill="#80B435" p-id="33481"></path><path d="M315.341999 995.906s0-2.554 0 0c0-2.554 0-2.554 0 0 0-2.554 0-2.554 0 0v-2.554c-5.108 2.554-12.77 7.662-17.878 10.216h7.662c5.108 0 10.216 0 12.77-2.554 0-2.554-2.554-5.108-2.554-5.108zM351.097999 975.474s0-2.554 0 0c-10.216 2.554-17.878 7.662-28.094 12.77 2.554 0 2.554 0 5.108-2.554 7.662-2.554 15.324-7.662 22.986-10.216zM289.801999 1003.568c-2.554 0-5.108 2.554-7.662 0-2.554 0-2.554 2.554-5.108 2.554 2.554 2.554 7.662 2.554 10.216 0 2.554 0 2.554 0 2.554-2.554z" fill="#93BB16" p-id="33482"></path><path d="M279.585999 1003.568c0 2.554-2.554 2.554-2.554 5.108 2.554-2.554 2.554-2.554 2.554-5.108 2.554 0 2.554 0 0 0zM323.003999 988.244c7.662-5.108 17.878-10.216 28.094-12.77 0-2.554 0-2.554 2.554-5.108-7.662 2.554-15.324 7.662-22.986 10.216-15.324 7.662-28.094 17.878-43.418 20.432h-2.554-2.554 7.662c2.554-2.554 5.108-2.554 7.662-2.554 7.662-2.554 12.77-5.108 17.878-10.216h7.662zM284.693999 1001.014h-5.108 2.554c0 2.554 0 2.554 2.554 0 0 2.554 0 2.554 0 0z" fill="#93BB16" p-id="33483"></path><path d="M351.097999 975.474c-7.662 2.554-15.324 7.662-22.986 10.216-2.554 0-2.554 0-5.108 2.554s-5.108 2.554-7.662 5.108v2.554c15.324-5.108 28.094-12.77 40.864-17.878-2.554 0-5.108 0-5.108-2.554zM501.784 947.38c38.31-15.324 76.62-33.202 112.376001-51.080001-2.554 0-5.108 0-10.216 2.554-15.324 7.662-33.202 15.324-45.972001 22.986-15.324 7.662-30.648 10.216-45.972 20.432001-10.216 5.108-22.986 10.216-35.756 12.77-30.648 10.216-58.742 20.432-89.390001 28.094-10.216 2.554-20.432 5.108-28.094 7.662-12.77 2.554-25.54 10.216-40.864 5.108 0 2.554 2.554 2.554 2.554 5.108 20.432-2.554 38.31-7.662 58.742-12.77 40.864-12.77 81.728-25.54 122.592001-40.864zM315.341999 990.798c2.554 0 5.108-2.554 7.662-5.108-2.554 2.554-5.108 2.554-7.662 5.108z" fill="#93BB16" p-id="33484"></path><path d="M422.609999 975.474c-28.094 7.662-56.188 12.77-84.282 22.986 7.662-2.554 17.878-2.554 25.54-5.108 58.742-12.77 114.930001-30.648 171.118001-56.188001 22.986-10.216 45.972-20.432 68.958001-33.202-15.324 5.108-28.094 15.324-40.864001 20.432-48.526 20.432-94.498001 38.31-140.470001 51.080001zM305.125999 1003.568c7.662-2.554 17.878-2.554 25.54-5.108-5.108 0-10.216 2.554-12.77 0-5.108 0-10.216 0-12.77 2.554h-7.662c-2.554 0-5.108 2.554-5.108 2.554s-2.554 2.554-2.554 5.108c2.554-2.554 10.216-5.108 15.324-5.108z" fill="#93BB16" p-id="33485"></path><path d="M297.463999 1001.014c-2.554 0-5.108 0-5.108 2.554 0 0 2.554-2.554 5.108-2.554zM501.784 947.38c-40.864 15.324-81.728 28.094-122.592001 38.31-17.878 5.108-38.31 10.216-58.742 12.77h17.878c28.094-7.662 56.188-12.77 84.282-22.986 48.526-12.77 91.944001-33.202 137.916001-51.080001 15.324-5.108 28.094-15.324 40.864001-20.432 2.554-2.554 7.662-5.108 10.216-7.662-35.756 17.878-71.512 35.756-109.822001 51.080001zM351.097999 975.474c0-2.554 0-2.554 0 0 0-2.554 0-2.554 0 0 0-2.554 0 0 0 0zM351.097999 972.92c2.554-2.554 2.554-2.554 2.554-5.108-2.554 2.554-2.554 5.108-2.554 5.108zM351.097999 975.474c0 2.554 2.554 2.554 5.108 2.554-2.554-2.554-2.554-2.554-5.108-2.554z" fill="#93BB16" p-id="33486"></path></svg>