<?xml version="1.0" standalone="no"?><!DOCTYPE svg PUBLIC "-//W3C//DTD SVG 1.1//EN" "http://www.w3.org/Graphics/SVG/1.1/DTD/svg11.dtd"><svg t="1719718947132" class="icon" viewBox="0 0 1024 1024" version="1.1" xmlns="http://www.w3.org/2000/svg" p-id="7361" xmlns:xlink="http://www.w3.org/1999/xlink" width="64" height="64"><path d="M0 0h1024v1024H0V0z m859.886933 512.034133A347.886933 347.886933 0 0 0 512 164.1472 347.886933 347.886933 0 0 0 164.113067 512.034133 347.886933 347.886933 0 0 0 512 859.921067a347.886933 347.886933 0 0 0 347.886933-347.886934z" fill="#773C1A" p-id="7362"></path><path d="M859.886933 512.034133A347.886933 347.886933 0 0 1 512 859.921067 347.886933 347.886933 0 0 1 164.113067 512.034133 347.886933 347.886933 0 0 1 512 164.1472a347.886933 347.886933 0 0 1 347.886933 347.886933z m-412.501333-177.152c2.594133-21.4016 2.389333-44.100267 9.454933-64.273066q7.509333-21.333333 15.5648-42.257067a0.4096 0.4096 0 0 0-0.648533-0.443733q-20.548267 19.182933-39.662933 38.468266c-5.358933 5.358933-13.0048 4.778667-19.285334 9.693867q-14.199467 11.0592-28.398933 22.493867-1.467733 1.194667-0.682667 2.901333l17.783467 37.376q0.8192 1.7408 2.7648 1.570133l40.891733-3.413333a2.389333 2.423467 1.5 0 0 2.218667-2.116267z m132.573867-88.8832c-30.242133 25.463467-59.6992 51.746133-86.3232 81.032534a8.738133 8.704 64 0 0-2.218667 6.485333l2.935467 39.0144a1.501867 1.536 82.4 0 0 1.809066 1.365333l38.263467-7.236266a1.911467 1.8432 7.2 0 0 1.365333-1.024q26.862933-57.856 45.056-119.0912 0.512-1.706667-0.887466-0.546134z m27.8528 161.245867q28.16-53.623467 47.138133-111.138133 0.750933-2.321067-1.2288-0.9216-48.708267 34.542933-88.849067 78.711466-1.058133 1.194667-0.989866 2.798934l1.570133 29.3888q0.1024 1.809067 1.911467 1.809066h39.355733a1.2288 1.194667 13.5 0 0 1.092267-0.648533z m55.261866 46.045867q9.591467-13.550933 18.6368-26.453334c14.5408-20.650667 23.278933-44.578133 33.1776-67.720533q0.546133-1.2288-0.648533-0.580267-40.004267 22.801067-50.5856 32.904534-19.6608 18.807467-39.492267 37.614933-1.160533 1.092267-0.955733 2.696533l3.1744 23.6544q0.170667 1.2288 1.399467 1.160534l31.402666-1.160534a5.0176 5.051733 16.6 0 0 3.8912-2.116266z m-90.2144 12.288q-41.8816-30.993067-55.534933-38.263467-66.048-35.1232-138.410667-54.033067-1.774933-0.443733-3.345066 0.512l-85.981867 52.3264a7.816533 7.748267 84.1 0 0-3.3792 4.1984L267.946667 485.034667q-0.546133 1.570133-0.034134 3.140266l25.053867 81.3056q0.546133 1.7408 2.2528 2.286934l54.272 17.237333q1.6384 0.512 3.003733-0.512l27.477334-20.548267a3.754667 3.754667 0 0 0 1.501866-3.003733q-0.1024-41.745067-0.034133-83.592533c0.034133-11.332267 13.687467-29.115733 25.975467-23.6544 21.845333 9.728 44.9536 18.705067 63.249066 34.133333 41.813333 35.293867 75.0592 76.0832 111.2064 120.4224 7.5776 9.284267 26.180267 19.8656 38.365867 18.568533q33.655467-3.584 48.605867-34.065066c4.7104-9.557333 1.058133-20.104533 0-30.4128q-0.170667-1.6384-1.194667-2.901334-27.8528-33.9968-58.129067-65.7408-16.247467-16.9984-36.6592-32.119466z m112.366934 36.9664l25.361066 5.495466q1.9456 0.4096 3.003734-1.2288c5.802667-8.977067 17.783467-25.019733 19.012266-35.328 1.877333-15.223467 6.485333-27.272533 11.707734-41.7792q1.3312-3.652267-1.467734-0.955733l-33.006933 31.880533a6.314667 6.144 15.2 0 1-2.833067 1.570134l-23.620266 5.870933q-1.570133 0.4096-1.570134 2.013867v28.228266a4.334933 4.334933 0 0 0 3.413334 4.232534z m-128.750934 168.174933l-79.121066-40.823467q-1.570133-0.8192-3.242667-0.170666l-29.730133 11.400533q-1.6384 0.648533-1.979734 2.389333l-11.025066 58.129067a6.144 6.2464 39.2 0 0 0.3072 3.310933l26.589866 68.778667q0.648533 1.7408 2.218667 2.7648l46.660267 30.4128q1.365333 0.853333 2.730666-0.034133 16.5888-10.888533 32.529067-22.801067c12.8-9.591467 19.694933-25.361067 27.306667-39.1168q0.887467-1.6384 0.580266-3.4816l-11.332266-67.345067q-0.375467-2.321067-2.491734-3.413333z" fill="#FEF2CA" p-id="7363"></path><path d="M447.3856 334.882133a2.389333 2.423467 1.5 0 1-2.218667 2.116267l-40.891733 3.413333q-1.9456 0.170667-2.7648-1.570133l-17.783467-37.376q-0.785067-1.706667 0.682667-2.901333 14.199467-11.434667 28.398933-22.493867c6.280533-4.9152 13.9264-4.334933 19.285334-9.693867q19.114667-19.285333 39.662933-38.468266a0.4096 0.4096 0 0 1 0.648533 0.443733q-8.055467 20.923733-15.5648 42.257067c-7.0656 20.1728-6.8608 42.871467-9.454933 64.273066zM493.636267 327.031467c26.624-29.2864 56.081067-55.569067 86.3232-81.032534q1.399467-1.160533 0.887466 0.546134-18.193067 61.2352-45.056 119.0912a1.911467 1.8432 7.2 0 1-1.365333 1.024l-38.263467 7.236266a1.501867 1.536 82.4 0 1-1.809066-1.365333l-2.935467-39.0144a8.738133 8.704 64 0 1 2.218667-6.485333zM607.812267 407.2448a1.2288 1.194667 13.5 0 1-1.092267 0.648533h-39.355733q-1.809067 0-1.911467-1.809066l-1.570133-29.3888q-0.068267-1.604267 0.989866-2.798934 40.1408-44.168533 88.849067-78.711466 1.979733-1.399467 1.2288 0.9216-18.978133 57.514667-47.138133 111.138133zM663.074133 453.290667a5.0176 5.051733 16.6 0 1-3.8912 2.116266l-31.402666 1.160534q-1.2288 0.068267-1.399467-1.160534l-3.1744-23.6544q-0.2048-1.604267 0.955733-2.696533 19.831467-18.807467 39.492267-37.614933 10.581333-10.103467 50.5856-32.904534 1.194667-0.648533 0.648533 0.580267c-9.898667 23.1424-18.6368 47.069867-33.1776 67.720533q-9.045333 12.9024-18.6368 26.453334zM609.518933 497.698133q30.276267 31.744 58.129067 65.7408 1.024 1.262933 1.194667 2.901334c1.058133 10.308267 4.7104 20.855467 0 30.4128q-14.9504 30.481067-48.605867 34.065066c-12.1856 1.297067-30.788267-9.284267-38.365867-18.568533-36.1472-44.3392-69.393067-85.128533-111.2064-120.4224-18.295467-15.428267-41.403733-24.405333-63.249066-34.133333-12.288-5.461333-25.941333 12.322133-25.975467 23.6544q-0.068267 41.847467 0.034133 83.592533a3.754667 3.754667 0 0 1-1.501866 3.003733l-27.477334 20.548267q-1.365333 1.024-3.003733 0.512l-54.272-17.237333q-1.706667-0.546133-2.2528-2.286934l-25.053867-81.3056q-0.512-1.570133 0.034134-3.140266l18.261333-54.715734a7.816533 7.748267 84.1 0 1 3.3792-4.1984l85.981867-52.3264q1.570133-0.955733 3.345066-0.512 72.362667 18.909867 138.410667 54.033067 13.653333 7.2704 55.534933 38.263467 20.411733 15.121067 36.6592 32.119466zM685.226667 502.545067a4.334933 4.334933 0 0 1-3.413334-4.232534v-28.228266q0-1.604267 1.570134-2.013867l23.620266-5.870933a6.314667 6.144 15.2 0 0 2.833067-1.570134l33.006933-31.880533q2.798933-2.696533 1.467734 0.955733c-5.2224 14.506667-9.8304 26.555733-11.707734 41.7792-1.2288 10.308267-13.2096 26.350933-19.012266 35.328q-1.058133 1.6384-3.003734 1.2288l-25.361066-5.495466zM556.475733 670.72q2.116267 1.092267 2.491734 3.413333l11.332266 67.345067q0.3072 1.8432-0.580266 3.4816c-7.611733 13.755733-14.506667 29.525333-27.306667 39.1168q-15.940267 11.912533-32.529067 22.801067-1.365333 0.887467-2.730666 0.034133l-46.660267-30.4128q-1.570133-1.024-2.218667-2.7648l-26.589866-68.778667a6.144 6.2464 39.2 0 1-0.3072-3.310933l11.025066-58.129067q0.341333-1.7408 1.979734-2.389333l29.730133-11.400533q1.672533-0.648533 3.242667 0.170666l79.121066 40.823467z" fill="#773C1A" p-id="7364"></path></svg>