<?xml version="1.0" standalone="no"?><!DOCTYPE svg PUBLIC "-//W3C//DTD SVG 1.1//EN" "http://www.w3.org/Graphics/SVG/1.1/DTD/svg11.dtd"><svg t="1716020629628" class="icon" viewBox="0 0 1024 1024" version="1.1" xmlns="http://www.w3.org/2000/svg" p-id="15583" xmlns:xlink="http://www.w3.org/1999/xlink" width="200" height="200"><path d="M0 512C0 229.2224 229.2224 0 512 0c282.7776 0 512 229.2224 512 512 0 282.7776-229.2224 512-512 512C229.2224 1024 0 794.7776 0 512z" fill="#B92B27" p-id="15584"></path><path d="M529.1008 696.4224c-21.828267-42.9568-47.445333-86.4256-97.450667-86.4256-9.5232 0-19.114667 1.5872-27.8528 5.5296l-16.9472-33.8944c20.650667-17.8176 54.101333-31.914667 97.109334-31.914667 66.850133 0 101.1712 32.3072 128.443733 73.3696 16.162133-35.072 23.808-82.517333 23.808-141.2608 0-146.756267-45.8752-222.088533-153.053867-222.088533-105.608533 0-151.313067 75.332267-151.313066 222.088533 0 145.954133 45.704533 220.501333 151.313066 220.501334 16.7936 0 32-1.809067 45.943467-5.905067z m26.2144 51.217067a281.719467 281.719467 0 0 1-72.123733 9.6256C342.528 757.248 204.8 645.034667 204.8 481.792 204.8 317.1328 342.4768 204.8 483.157333 204.8c143.035733 0 279.381333 111.445333 279.381334 277.026133 0 92.074667-42.9568 166.912-105.403734 215.296 20.087467 30.225067 40.891733 50.3296 69.819734 50.3296 31.522133 0 44.288-24.354133 46.421333-43.52h41.130667c2.389333 25.514667-10.359467 131.396267-125.303467 131.396267-69.546667 0-106.3936-40.362667-133.973333-87.637333l0.085333-0.0512z" fill="#FFFFFF" p-id="15585"></path></svg>