<?xml version="1.0" standalone="no"?><!DOCTYPE svg PUBLIC "-//W3C//DTD SVG 1.1//EN" "http://www.w3.org/Graphics/SVG/1.1/DTD/svg11.dtd"><svg t="1782221419979" class="icon" viewBox="0 0 1024 1024" version="1.1" xmlns="http://www.w3.org/2000/svg" p-id="32432" xmlns:xlink="http://www.w3.org/1999/xlink" width="200" height="200"><path d="M625.731952 671.241799a10.66637 10.66637 0 0 1 0 17.066192 206.700036 206.700036 0 0 1-227.549235 0 10.66637 10.66637 0 0 1 0-17.066192 19.910558 19.910558 0 0 1 11.377462-5.688731c5.688731 0 5.688731 0 11.377462 5.688731a178.626149 178.626149 0 0 0 193.416849 0 19.910558 19.910558 0 0 1 11.377462-5.688731c5.688731 0 0 0 0 5.688731z m-176.350657-108.085887a40.560651 40.560651 0 0 1-17.066193 34.132386 49.179078 49.179078 0 0 1-34.132385 17.066192 40.560651 40.560651 0 0 1-34.132385-17.066192 49.179078 49.179078 0 0 1-17.066193-34.132386 34.388378 34.388378 0 0 1 17.066193-34.132385 49.179078 49.179078 0 0 1 34.132385-17.066192 40.560651 40.560651 0 0 1 34.132385 17.066192 49.179078 49.179078 0 0 1 17.066193 34.132385z m227.549235 0a40.560651 40.560651 0 0 1-17.066193 34.132386 49.179078 49.179078 0 0 1-34.132385 17.066192 40.560651 40.560651 0 0 1-34.132385-17.066192 49.179078 49.179078 0 0 1-17.066193-34.132386 40.560651 40.560651 0 0 1 17.066193-34.132385 49.179078 49.179078 0 0 1 34.132385-17.066192 40.560651 40.560651 0 0 1 34.132385 17.066192 49.179078 49.179078 0 0 1 17.066193 34.132385z m142.218271-68.26477a51.739007 51.739007 0 0 0-22.754923-45.509847 84.733646 84.733646 0 0 0-51.198578-22.754924 69.487848 69.487848 0 0 0-51.198578 22.754924 359.982889 359.982889 0 0 0-176.350657-56.887309l34.132386-159.284464 113.774617 28.443654a40.560651 40.560651 0 0 0 17.066193 34.132386 49.179078 49.179078 0 0 0 34.132385 17.066192 40.560651 40.560651 0 0 0 34.132385-17.066192c5.688731-11.377462 17.066193-22.754923 17.066193-34.132386a40.560651 40.560651 0 0 0-17.066193-34.132385 49.179078 49.179078 0 0 0-34.132385-17.066193 50.658148 50.658148 0 0 0-45.509847 28.443655l-125.152079-28.443655c-5.688731 0-11.377462 0-17.066193 11.377462l-39.821116 176.350657a310.320269 310.320269 0 0 0-176.350657 56.887309 72.104664 72.104664 0 0 0-51.198578-22.754924 69.487848 69.487848 0 0 0-51.198578 22.754924 58.76459 58.76459 0 0 0-22.754923 45.509847 80.865309 80.865309 0 0 0 11.377462 34.132385 56.887309 56.887309 0 0 0 28.443654 22.754923c0 11.377462-5.688731 22.754923-5.688731 34.132386a159.881781 159.881781 0 0 0 79.642232 136.529541 357.280742 357.280742 0 0 0 386.833699 0c51.198578-39.821116 79.642232-85.330963 79.642233-136.529541a72.161551 72.161551 0 0 0-5.688731-34.132386 56.887309 56.887309 0 0 0 28.443654-22.754923c22.754923-11.377462 28.443654-22.754923 28.443654-39.821116z m204.794312 17.066193a479.247132 479.247132 0 0 1-39.821116 199.10558 483.542124 483.542124 0 0 1-273.059082 273.059082 517.674509 517.674509 0 0 1-398.211161 0 483.542124 483.542124 0 0 1-273.059082-273.059082 517.674509 517.674509 0 0 1 0-398.211161 483.542124 483.542124 0 0 1 273.059082-273.059082 517.674509 517.674509 0 0 1 398.211161 0 483.542124 483.542124 0 0 1 273.059082 273.059082 479.247132 479.247132 0 0 1 39.821116 199.105581z" fill="#FF3D06" p-id="32433"></path></svg>