<?xml version="1.0" standalone="no"?><!DOCTYPE svg PUBLIC "-//W3C//DTD SVG 1.1//EN" "http://www.w3.org/Graphics/SVG/1.1/DTD/svg11.dtd"><svg t="1782221086956" class="icon" viewBox="0 0 1024 1024" version="1.1" xmlns="http://www.w3.org/2000/svg" p-id="30474" xmlns:xlink="http://www.w3.org/1999/xlink" width="200" height="200"><path d="M849.92 107.52c3.584 0.512 9.728 2.56 15.872 8.192 8.192 7.168 10.752 15.872 11.776 19.456 35.328 59.904 70.144 120.32 105.472 180.224 1.536 5.632 3.072 13.312 3.072 22.016 0 6.144-0.512 11.776-1.536 16.384-41.984 65.024-83.968 130.048-126.464 195.072-1.024 1.536-11.264 11.776-26.624 10.24-12.288-1.024-19.456-8.704-21.504-10.752-135.168-225.792-233.472-393.216-244.736-418.304-2.048-4.608-7.68-16.896-2.56-27.648 4.608-9.216 15.872-13.312 22.528-14.848 88.576 6.656 176.64 13.312 264.704 19.968z" fill="#0066FF" p-id="30475"></path><path d="M15.36 150.016c113.152 179.712 226.816 358.912 339.968 538.624 6.656 8.192 17.92 12.288 28.672 11.264 15.872-2.048 23.04-14.848 23.552-15.872 50.176-69.12 100.864-138.24 151.04-207.36 2.56-5.12 6.144-15.36 6.656-28.16 0-14.848-5.12-26.112-7.68-31.232-64.512-102.4-129.024-204.8-193.536-307.712-2.56-2.56-9.216-9.216-19.456-11.776-8.192-2.048-14.848-1.024-18.432-0.512-10.24 0-246.784-0.512-286.208 10.752-5.12 1.536-17.408 5.12-23.552 15.872-1.536 1.024-7.68 13.312-1.024 26.112z" fill="#CCFFFF" p-id="30476"></path><path d="M108.544 299.52c113.152 179.712 226.816 358.912 339.968 538.624 6.656 8.192 17.92 12.288 28.672 11.264 15.872-2.048 23.04-14.848 23.552-15.872 50.176-69.12 100.864-138.24 151.04-207.36 2.56-5.12 6.144-15.36 6.656-28.16 0-14.848-5.12-26.112-7.68-31.232-64.512-102.4-129.024-204.8-193.536-307.712-2.56-2.56-9.216-9.216-19.456-11.776-8.192-2.048-14.848-1.024-18.432-0.512-10.24 0-246.784-0.512-286.208 10.752-5.12 1.536-17.408 5.12-23.552 15.872-1.536 0.512-8.192 12.8-1.024 26.112z" fill="#66CCFF" p-id="30477"></path><path d="M215.04 462.336c113.152 179.712 226.816 358.912 339.968 538.624 6.656 8.192 17.92 12.288 28.672 11.264 15.872-2.048 23.04-14.848 23.552-15.872 50.176-69.12 100.864-138.24 151.04-207.36 2.56-5.12 6.144-15.36 6.656-28.16 0-14.848-5.12-26.112-7.68-31.232-64.512-102.4-129.024-204.8-193.536-307.712-2.56-2.56-9.216-9.216-19.456-11.776-8.192-2.048-14.848-1.024-18.432-0.512-10.24 0-246.784-0.512-286.208 10.752-5.12 1.536-17.408 5.12-23.552 15.872-1.536 1.024-7.68 13.312-1.024 26.112z" fill="#0066FF" p-id="30478"></path></svg>