<?xml version="1.0" standalone="no"?><!DOCTYPE svg PUBLIC "-//W3C//DTD SVG 1.1//EN" "http://www.w3.org/Graphics/SVG/1.1/DTD/svg11.dtd"><svg t="1716020442508" class="icon" viewBox="0 0 1024 1024" version="1.1" xmlns="http://www.w3.org/2000/svg" p-id="12182" xmlns:xlink="http://www.w3.org/1999/xlink" width="200" height="200"><path d="M587.90912 319.50848h-40.02816v385.43872h40.02816c68.97152 0 121.344-16.08192 155.76064-47.616 33.73568-30.90432 51.5072-81.00864 51.54304-145.1264 0-64.29184-17.81248-114.44224-51.54304-145.26464-34.36032-31.41632-86.78912-47.43168-155.76064-47.43168z" fill="#C71724" p-id="12183"></path><path d="M861.52704 45.96224H162.47296c-64.3584 0-116.51072 52.16256-116.51072 116.51584v699.05408c0 64.33792 52.15232 116.51072 116.51072 116.51072h699.04896c64.34304 0 116.51072-52.16768 116.51072-116.51072V162.47808c0-64.35328-52.16256-116.51584-116.5056-116.51584zM402.01728 591.3088c0 64.10752-18.88768 112.73216-56.20736 144.91136-36.46976 31.37024-95.3856 47.4112-170.5728 47.4112-0.62464 0-2.2016 0.10752-4.18816 0h-8.63232v-78.7712h9.04704c25.94304-0.20992 48.10752-2.56 65.80736-7.09632 18.08896-4.64384 33.86368-11.94496 46.76096-21.82656 10.5984-8.43776 18.2784-19.54816 22.70208-32.78848 4.72064-13.95712 7.11168-39.17312 7.11168-74.96192l0.0768-327.84384h88.10496v350.96576z m400.76288 124.2624c-51.4304 45.23008-127.2576 68.22912-224.9216 68.22912H462.75584V240.19968h115.10272c97.65888 0 173.37856 22.95296 224.9216 68.33152 51.15904 44.84608 78.18752 115.3792 78.21824 203.59168 0 88.09472-26.9824 158.44864-78.21824 203.44832z" fill="#C71724" p-id="12184"></path></svg>