<?xml version="1.0" standalone="no"?><!DOCTYPE svg PUBLIC "-//W3C//DTD SVG 1.1//EN" "http://www.w3.org/Graphics/SVG/1.1/DTD/svg11.dtd"><svg t="1715348209537" class="icon" viewBox="0 0 1024 1024" version="1.1" xmlns="http://www.w3.org/2000/svg" p-id="4706" xmlns:xlink="http://www.w3.org/1999/xlink" width="200" height="200"><path d="M817.578667 141.312S983.424 314.666667 981.333333 528.469333c0 0 3.84 118.869333-112.896 172.117334 0 0-97.664 59.093333-234.922666-13.653334 0 0-86.016-39.594667-271.786667-219.136 0 0-96.853333-103.168-180.693333-158.848 0 0-24.405333-24.192-27.733334-8.96 0 0-18.773333 16.597333 9.173334 193.365334 0 0 39.04 182.698667 52.48 203.946666L167.253333 878.762667s-55.637333-132.224-100.352-337.365334c0 0-51.2-211.2-4.736-303.786666 0 0 57.728-100.778667 169.728-19.541334 0 0 99.072 61.525333 240.896 212.906667 0 0 149.461333 144.810667 221.013334 169.557333 0 0 104.533333 52.181333 154.496-9.002666 0 0 69.418667-50.133333-5.973334-220.885334l-92.928-158.805333 68.181334-70.528z" fill="#0086FF" p-id="4707"></path><path d="M834.56 162.56s66.901333 370.048-99.114667 544.256c0 0-112.853333 143.957333-276.224 45.098667 0 0-145.92-107.52-158.976-76.928 0 0-37.802667 21.632-39.936 121.173333v46.677333s2.986667 56.149333-56.874666 53.034667c0 0-51.2-0.341333-49.450667-59.093333 0 0-13.056-226.389333 117.290667-261.333334 0 0 70.314667-34.389333 195.84 55.68 0 0 80.384 71.68 129.877333 51.328 0 0 111.616-16.938667 143.786667-265.984 0 0 5.248-132.906667-7.808-223.488 0 0-12.202667-52.181333 39.936-63.744 0 0.170667 38.144-11.434667 61.610666 33.322667z" fill="#C600CC" p-id="4708"></path></svg>