<?xml version="1.0" standalone="no"?><!DOCTYPE svg PUBLIC "-//W3C//DTD SVG 1.1//EN" "http://www.w3.org/Graphics/SVG/1.1/DTD/svg11.dtd"><svg t="1716020119659" class="icon" viewBox="0 0 1024 1024" version="1.1" xmlns="http://www.w3.org/2000/svg" p-id="6198" xmlns:xlink="http://www.w3.org/1999/xlink" width="200" height="200"><path d="M0 0h1024v1024H0V0m160.8 123.04c81.76 15.84 164.96 8.16 247.52 9.92-38.56 10.72-79.68 15.04-114.72 36 27.2 6.72 54.4 12.8 81.76 18.72-15.04 2.56-45.28 7.84-60.32 10.4 8.48 17.28 16.64 34.56 24.8 52 11.36-0.64 34.24-1.76 45.6-2.4 10.88-43.52 22.24-87.36 41.92-127.84-2.24 44.32-8.16 88.48-16.96 132-51.2 22.08-62.24 81.28-97.12 119.84 59.2 18.72 126.4 40.96 185.76 10.56 12.8-73.28 5.28-148.32 4.32-222.24 2.56-25.6-12.16-57.6-41.28-57.28-73.76-4.8-147.68 2.24-221.6 0-28.48-2.88-55.2 7.04-79.68 20.32m356.64 88.48c11.36 8.48 22.56 17.12 33.76 25.76-7.04 13.92-21.44 41.92-28.48 55.84 47.52 5.12 100.96 17.28 143.84-11.2-16.16-5.12-48.48-15.04-64.8-20.16 25.12 0.16 50.24 0.64 75.36 1.28-4.8 15.52-10.24 30.88-16.64 45.92-46.56 4.64-93.12-1.92-139.84-2.88 0 26.72 0.16 53.6 0.32 80.48 14.4 4.16 28.8 8.32 43.2 12.64 14.4-20.8 29.28-41.44 44.16-61.76 7.2 3.68 21.76 11.2 28.96 14.88 46.08-21.12 107.2-35.68 117.76-93.92-56-17.28-132.16-97.76-181.44-29.44-7.2-8-14.24-16-21.12-24 71.2-37.12 147.52-0.32 204.8 43.84 10.4 22.88 11.2 62.08-17.44 72-47.84 23.84-97.92 43.52-141.92 74.72 90.88-4.48 185.92 12.96 274.08-11.36 16.16-90.08 16.96-187.2-6.72-275.68-94.72-16.32-192.16-1.92-287.84-4.8-57.12 1.12-53.76 66.88-60 107.84M153.28 144c-10.24 82.72-5.12 166.24-3.84 249.28 52.16 3.84 104.48 3.84 156.64 6.56-43.52-31.36-78.72-72.48-88.96-126.4-16.96-5.44-35.84-6.88-51.04-16.64-3.52-37.6-1.12-76.16-12.8-112.8m29.28 3.52c2.4 33.12 5.12 66.08 8 99.2 48 4.8 96.32 6.72 144.64 8.64-11.2-13.28-22.4-26.4-33.6-39.52-20.64 10.56-41.28 20.8-62.24 30.72 7.2-10.88 21.6-32.48 28.8-43.36-18.24-7.84-36.48-15.84-54.56-24 16 0.32 47.68 0.96 63.68 1.12l4.8-30.72c-33.12-0.8-66.4-1.6-99.52-2.08m46.56 123.84c16 25.92 33.76 50.72 52.64 74.72 21.28-16.64 41.92-34.08 62.88-50.88 4.16-7.68 12.32-23.2 16.32-31.04-43.84 3.2-87.84 4.96-131.84 7.2m-87.36 192c-3.68 75.36-4 151.2-1.12 226.56 23.04 27.2 51.04-2.56 74.24-13.28-0.48-26.4-0.48-52.96-0.16-79.52-4.64-0.32-13.92-1.28-18.56-1.6 17.76-31.04 35.52-61.92 52.96-93.12 14.4-5.12 28.96-10.4 43.52-15.52 20.8-24.96 42.08-49.44 64-73.28 3.52 23.52 6.72 47.2 9.6 71.04-6.56-10.56-19.52-31.36-26.08-41.76l-16.64 26.4c10.08 4.64 30.4 14.24 40.64 19.04l22.56-1.92c17.6-18.72 35.68-36.96 56.8-51.84-8.32 19.36-15.84 39.04-22.4 59.04 21.76-21.76 41.6-45.44 62.88-67.68-32.96 58.24-34.72 134.72-91.04 177.76-32.64 24.64-75.84 27.36-112.16 45.12-6.4-3.52-19.2-10.4-25.76-13.92 3.52 7.84 10.56 23.68 14.08 31.52-16.64 10.88-33.28 21.92-49.92 32.96 93.6 2.24 195.2 24.48 283.2-16-7.68-85.6 9.44-174.72-14.88-258.08-99.04-21.12-201.6-10.24-302.08-16.96-14.88 17.44-43.84 28.8-43.68 55.04m375.84-26.72c-9.28 90.56-5.6 181.44-1.76 272.16 10.08-35.52 20.32-70.88 32.96-105.44 1.92 27.68 3.2 55.52 4.8 83.36 89.92-14.56 181.92-8.32 271.2-28.64-8.64-26.72-17.92-53.28-27.68-79.52-22.88 24.96-43.84 51.52-65.28 77.76-15.52-48.32-24.96-100-53.92-142.88-15.04 49.44-20.64 101.44-37.76 150.24-28-29.28-43.04-67.52-61.28-103.04l-37.92 30.88c10.08-20.32 20.48-40.32 31.04-60.32l52.32 39.84c13.6-31.04 25.76-63.68 49.12-88.96 42.88 17.6 57.28 64.96 74.08 104 17.28-12.96 34.88-25.12 52.96-36.8 38.88 30.08 56.64 78.88 56.32 127.04-76 24.32-160.96-12-233.76 30.72 54.72 3.84 109.6 1.92 164.32 3.68 27.2-0.96 60.8 2.88 79.04-22.08 9.76-74.4 4.64-149.92 1.6-224.48 0.96-21.6-13.44-46.72-36.64-48.16-74.4-8-149.28 2.4-224 1.28-31.36-1.92-61.12 7.84-89.76 19.36m-208.8 65.6c6.88 10.56 6.88 10.56 0 0m99.84-2.56c5.28 4.8 5.28 4.8 0 0m-153.76 31.2c1.44 23.04 45.44 30.4 44.64 2.72-1.44-23.36-45.28-30.24-44.64-2.72m67.04-1.28c5.76 24 52 21.76 58.56-0.96-6.4-25.44-51.36-22.72-58.56 0.96m-110.4 64.32c13.12-6.08 39.2-17.92 52.32-23.84-8.32 11.2-25.12 33.6-33.44 44.8 66.24 0 140.8 5.76 186.56-52.32-60.32-0.8-124 13.12-180.64-14.72-6.24 11.52-18.56 34.56-24.8 46.08m-48.32 144.48c3.52 29.12 6.56 58.24 11.2 87.36 7.52-28.48 11.04-57.76 16-86.72l-27.2-0.64m134.88-9.6c32.32 32.64 69.28 60.32 109.76 82.08-27.2-38.08-66.08-66.08-109.76-82.08m341.28 0.64c14.08 35.36 36.32 66.88 64.32 92.64-12.16-36.32-29.92-72.64-64.32-92.64m105.44-0.8c32.8 32.64 70.08 60.64 111.04 82.4-27.68-38.24-67.04-66.24-111.04-82.4m-164.96 110.88c-16.64 16.48-13.76 27.2 8.8 32.32 16.64-16.64 13.76-27.36-8.8-32.32z" fill="#F19F40" p-id="6199"></path><path d="M164 334.56c-6.4-22.24 1.6-30.88 23.84-26.08 6.08 22.08-1.76 30.88-23.84 26.08zM434.24 309.12c28.64 8.48-6.08 57.6-27.52 42.72-10.56-18.08 9.44-40.48 27.52-42.72z" fill="#F19F40" p-id="6200"></path><path d="M160.8 123.04c24.48-13.28 51.2-23.2 79.68-20.32 73.92 2.24 147.84-4.8 221.6 0C491.2 102.4 505.92 134.4 503.36 160c0.96 73.92 8.48 148.96-4.32 222.24-59.36 30.4-126.56 8.16-185.76-10.56 34.88-38.56 45.92-97.76 97.12-119.84 8.8-43.52 14.72-87.68 16.96-132-19.68 40.48-31.04 84.32-41.92 127.84-11.36 0.64-34.24 1.76-45.6 2.4-8.16-17.44-16.32-34.72-24.8-52 15.04-2.56 45.28-7.84 60.32-10.4-27.36-5.92-54.56-12-81.76-18.72 35.04-20.96 76.16-25.28 114.72-36-82.56-1.76-165.76 5.92-247.52-9.92m273.44 186.08c-18.08 2.24-38.08 24.64-27.52 42.72 21.44 14.88 56.16-34.24 27.52-42.72zM517.44 211.52c6.24-40.96 2.88-106.72 60-107.84 95.68 2.88 193.12-11.52 287.84 4.8 23.68 88.48 22.88 185.6 6.72 275.68-88.16 24.32-183.2 6.88-274.08 11.36 44-31.2 94.08-50.88 141.92-74.72 28.64-9.92 27.84-49.12 17.44-72-57.28-44.16-133.6-80.96-204.8-43.84 6.88 8 13.92 16 21.12 24 49.28-68.32 125.44 12.16 181.44 29.44-10.56 58.24-71.68 72.8-117.76 93.92-7.2-3.68-21.76-11.2-28.96-14.88-14.88 20.32-29.76 40.96-44.16 61.76-14.4-4.32-28.8-8.48-43.2-12.64-0.16-26.88-0.32-53.76-0.32-80.48 46.72 0.96 93.28 7.52 139.84 2.88 6.4-15.04 11.84-30.4 16.64-45.92-25.12-0.64-50.24-1.12-75.36-1.28 16.32 5.12 48.64 15.04 64.8 20.16-42.88 28.48-96.32 16.32-143.84 11.2 7.04-13.92 21.44-41.92 28.48-55.84-11.2-8.64-22.4-17.28-33.76-25.76zM153.28 144c11.68 36.64 9.28 75.2 12.8 112.8 15.2 9.76 34.08 11.2 51.04 16.64 10.24 53.92 45.44 95.04 88.96 126.4-52.16-2.72-104.48-2.72-156.64-6.56-1.28-83.04-6.4-166.56 3.84-249.28m10.72 190.56c22.08 4.8 29.92-4 23.84-26.08-22.24-4.8-30.24 3.84-23.84 26.08z" fill="#090305" p-id="6201"></path><path d="M182.56 147.52c33.12 0.48 66.4 1.28 99.52 2.08l-4.8 30.72c-16-0.16-47.68-0.8-63.68-1.12 18.08 8.16 36.32 16.16 54.56 24-7.2 10.88-21.6 32.48-28.8 43.36 20.96-9.92 41.6-20.16 62.24-30.72 11.2 13.12 22.4 26.24 33.6 39.52-48.32-1.92-96.64-3.84-144.64-8.64-2.88-33.12-5.6-66.08-8-99.2zM229.12 271.36c44-2.24 88-4 131.84-7.2-4 7.84-12.16 23.36-16.32 31.04-20.96 16.8-41.6 34.24-62.88 50.88a805.44 805.44 0 0 1-52.64-74.72zM141.76 463.36c-0.16-26.24 28.8-37.6 43.68-55.04 100.48 6.72 203.04-4.16 302.08 16.96 24.32 83.36 7.2 172.48 14.88 258.08-88 40.48-189.6 18.24-283.2 16 16.64-11.04 33.28-22.08 49.92-32.96-3.52-7.84-10.56-23.68-14.08-31.52 6.56 3.52 19.36 10.4 25.76 13.92 36.32-17.76 79.52-20.48 112.16-45.12 56.32-43.04 58.08-119.52 91.04-177.76-21.28 22.24-41.12 45.92-62.88 67.68 6.56-20 14.08-39.68 22.4-59.04-21.12 14.88-39.2 33.12-56.8 51.84l-22.56 1.92c-10.24-4.8-30.56-14.4-40.64-19.04l16.64-26.4c6.56 10.4 19.52 31.2 26.08 41.76-2.88-23.84-6.08-47.52-9.6-71.04-21.92 23.84-43.2 48.32-64 73.28-14.56 5.12-29.12 10.4-43.52 15.52-17.44 31.2-35.2 62.08-52.96 93.12 4.64 0.32 13.92 1.28 18.56 1.6-0.32 26.56-0.32 53.12 0.16 79.52-23.2 10.72-51.2 40.48-74.24 13.28-2.88-75.36-2.56-151.2 1.12-226.56zM517.6 436.64c28.64-11.52 58.4-21.28 89.76-19.36 74.72 1.12 149.6-9.28 224-1.28 23.2 1.44 37.6 26.56 36.64 48.16 3.04 74.56 8.16 150.08-1.6 224.48-18.24 24.96-51.84 21.12-79.04 22.08-54.72-1.76-109.6 0.16-164.32-3.68 72.8-42.72 157.76-6.4 233.76-30.72 0.32-48.16-17.44-96.96-56.32-127.04-18.08 11.68-35.68 23.84-52.96 36.8-16.8-39.04-31.2-86.4-74.08-104-23.36 25.28-35.52 57.92-49.12 88.96l-52.32-39.84c-10.56 20-20.96 40-31.04 60.32l37.92-30.88c18.24 35.52 33.28 73.76 61.28 103.04 17.12-48.8 22.72-100.8 37.76-150.24 28.96 42.88 38.4 94.56 53.92 142.88 21.44-26.24 42.4-52.8 65.28-77.76 9.76 26.24 19.04 52.8 27.68 79.52-89.28 20.32-181.28 14.08-271.2 28.64-1.6-27.84-2.88-55.68-4.8-83.36-12.64 34.56-22.88 69.92-32.96 105.44-3.84-90.72-7.52-181.6 1.76-272.16zM308.8 502.24c6.88 10.56 6.88 10.56 0 0z" fill="#090305" p-id="6202"></path><path d="M408.64 499.68c5.28 4.8 5.28 4.8 0 0zM254.88 530.88c-0.64-27.52 43.2-20.64 44.64 2.72 0.8 27.68-43.2 20.32-44.64-2.72zM321.92 529.6c7.2-23.68 52.16-26.4 58.56-0.96-6.56 22.72-52.8 24.96-58.56 0.96z" fill="#090305" p-id="6203"></path><path d="M211.52 593.92c6.24-11.52 18.56-34.56 24.8-46.08 56.64 27.84 120.32 13.92 180.64 14.72-45.76 58.08-120.32 52.32-186.56 52.32 8.32-11.2 25.12-33.6 33.44-44.8-13.12 5.92-39.2 17.76-52.32 23.84zM163.2 738.4l27.2 0.64c-4.96 28.96-8.48 58.24-16 86.72-4.64-29.12-7.68-58.24-11.2-87.36zM298.08 728.8c43.68 16 82.56 44 109.76 82.08a462.96 462.96 0 0 1-109.76-82.08zM639.36 729.44c34.4 20 52.16 56.32 64.32 92.64-28-25.76-50.24-57.28-64.32-92.64zM744.8 728.64c44 16.16 83.36 44.16 111.04 82.4a471.168 471.168 0 0 1-111.04-82.4zM579.84 839.52c22.56 4.96 25.44 15.68 8.8 32.32-22.56-5.12-25.44-15.84-8.8-32.32z" fill="#090305" p-id="6204"></path></svg>