<?xml version="1.0" standalone="no"?><!DOCTYPE svg PUBLIC "-//W3C//DTD SVG 1.1//EN" "http://www.w3.org/Graphics/SVG/1.1/DTD/svg11.dtd"><svg t="1716020708261" class="icon" viewBox="0 0 1024 1024" version="1.1" xmlns="http://www.w3.org/2000/svg" p-id="21258" xmlns:xlink="http://www.w3.org/1999/xlink" width="200" height="200"><path d="M895.52 404.94s-27.42 104.05-39.86 146.03c-4.25 14.35-25.94 25.02-46.93 21.56-20.99-5.05-27.43-7.45-24.42-25.28 6.67-39.54 33.88-142.79 33.88-142.79h-53.15s-37.62 145.26-35.88 161.85c4.92 46.72 69.54 52.57 69.54 52.57s64.94 3.85 95.23-24.32c17.6-16.37 52.62-189.62 52.62-189.62h-51.03zM478.68 405.21s-4.06 17.56-9.57 40.86h54.47c5.16-23.61 8.51-40.86 8.51-40.86h-53.41zM365.86 546.3c7.97-43.05 35.88-142.71 35.88-142.71h-53.15s-38.38 145.36-35.88 161.85c4.52 29.72 38.54 56.1 69.63 52.11l8.92-44.34c-14.24-6.55-28.86-8.23-25.4-26.91zM466.98 455.04c-6.83 28.75-15.21 63.34-20.99 84.91-4.92 18.35-21.13 33.88-40.47 33.55l-9.39 44.35c30.75 10.99 72.99-15.4 88.52-39.63 12.16-18.97 27.11-79.1 36.94-123.18h-54.61z" fill="#B5202E" p-id="21259"></path><path d="M685.04 409.05c-5.99-1.35-15.31-2.32-25.72-3.01l-7.26 42.63c4.36 0.39 8.27 1.04 10.92 2.11 1.47 0.59 12.76 6.64 12.76 17.81 0 16.48-15.95 27.72-19.93 29.32-12.76 5.1-33.91 2.18-53.28 2.18l-9.87 43.46 17.98 0.52c23.54 0 38 3.46 66.44-7.97 42.9-17.24 47.84-51.2 47.84-71.22-0.02-33.77-23.41-52.11-39.88-55.83z" fill="#B5202E" p-id="21260"></path><path d="M620.46 448.92s9.55-0.73 19.95-0.7l5.95-34.92H611.3v-8.74h-0.66l-45.84 0.01-52.49 214.18 52.25-0.01 14.78-72.88 21.6-97.24 19.52 0.3z" fill="#B5202E" p-id="21261"></path><path d="M251.82 405.22l-16.39 76.77h-45.29v0.01h-27.03l16.39-76.79-56.23 0.01-45.81 214.71 56.19 0.48 21.26-99.88 35.68 0.01v-0.01h36.62L206 619.93l56.2 0.48 21.25-99.88 8.2-38.53 16.4-76.79z" fill="#B5202E" p-id="21262"></path></svg>